<svg width="133" height="15" viewBox="0 0 133 15" fill="none" xmlns="http://www.w3.org/2000/svg">
<path d="M128.156 0.300003C129.03 0.300003 129.834 0.553337 130.57 1.06C131.317 1.56667 131.908 2.25334 132.345 3.12C132.782 3.97334 133 4.90667 133 5.92V8.6C133 9.61334 132.782 10.5533 132.345 11.42C131.908 12.2733 131.317 12.9533 130.57 13.46C129.834 13.9667 129.03 14.22 128.156 14.22H123.727V0.300003H128.156ZM132.362 5.92C132.362 5.04 132.173 4.22667 131.793 3.48C131.414 2.73334 130.897 2.14 130.242 1.7C129.599 1.26 128.898 1.04 128.139 1.04H124.364V13.48H128.139C128.898 13.48 129.599 13.26 130.242 12.82C130.897 12.38 131.414 11.7867 131.793 11.04C132.173 10.2933 132.362 9.48 132.362 8.6V5.92Z" fill="black"/>
<path d="M94.9736 0.220001H95.5978V8.68695C95.5978 9.55334 95.7833 10.3541 96.1544 11.0892C96.5256 11.8243 97.026 12.4085 97.6558 12.8417C98.2855 13.2749 98.9715 13.4915 99.7138 13.4915C100.456 13.4915 101.142 13.2749 101.772 12.8417C102.402 12.4085 102.902 11.8243 103.273 11.0892C103.644 10.3541 103.83 9.55334 103.83 8.68695V0.220001H104.454V8.68695C104.454 9.68461 104.24 10.6101 103.813 11.4633C103.386 12.3035 102.806 12.9729 102.075 13.4718C101.356 13.9706 100.568 14.22 99.7138 14.22C98.8591 14.22 98.0662 13.9706 97.3353 13.4718C96.6155 12.9729 96.042 12.3035 95.6146 11.4633C95.1873 10.6101 94.9736 9.68461 94.9736 8.68695V0.220001Z" fill="black"/>
<path d="M108.763 14H109.387V5.53305C109.387 4.66667 109.573 3.86592 109.944 3.1308C110.315 2.39569 110.815 1.81153 111.445 1.37834C112.075 0.945147 112.761 0.728551 113.503 0.728551C114.245 0.728551 114.931 0.945147 115.561 1.37834C116.191 1.81153 116.691 2.39569 117.063 3.1308C117.434 3.86592 117.619 4.66667 117.619 5.53305V14H118.243V5.53305C118.243 4.53539 118.03 3.60994 117.602 2.75668C117.175 1.91655 116.596 1.24707 115.865 0.74824C115.145 0.249412 114.358 0 113.503 0C112.649 0 111.856 0.249412 111.125 0.74824C110.405 1.24707 109.831 1.91655 109.404 2.75668C108.977 3.60994 108.763 4.53539 108.763 5.53305V14Z" fill="black"/>
<path d="M84.8282 0C85.7245 0 86.5519 0.26 87.3103 0.779999C88.0687 1.28667 88.6663 1.98 89.1029 2.86C89.5511 3.74 89.7752 4.7 89.7752 5.74V8.78C89.7752 9.82 89.5511 10.78 89.1029 11.66C88.6663 12.54 88.0687 13.24 87.3103 13.76C86.5519 14.2667 85.7245 14.52 84.8282 14.52C83.9319 14.52 83.1045 14.2667 82.3461 13.76C81.5877 13.24 80.9844 12.54 80.5362 11.66C80.0996 10.78 79.8812 9.82 79.8812 8.78V5.74C79.8812 4.7 80.0996 3.74 80.5362 2.86C80.9844 1.98 81.5877 1.28667 82.3461 0.779999C83.1045 0.26 83.9319 0 84.8282 0ZM80.519 8.78C80.519 9.68667 80.7086 10.5267 81.0878 11.3C81.4785 12.06 82.0014 12.6667 82.6564 13.12C83.3228 13.56 84.0468 13.78 84.8282 13.78C85.6096 13.78 86.3278 13.56 86.9828 13.12C87.6493 12.6667 88.1721 12.06 88.5514 11.3C88.9421 10.5267 89.1374 9.68667 89.1374 8.78V5.74C89.1374 4.83333 88.9421 4 88.5514 3.24C88.1721 2.46667 87.6493 1.86 86.9828 1.42C86.3278 0.966666 85.6096 0.74 84.8282 0.74C84.0468 0.74 83.3228 0.966666 82.6564 1.42C82.0014 1.86 81.4785 2.46667 81.0878 3.24C80.7086 4 80.519 4.83333 80.519 5.74V8.78Z" fill="black"/>
<path d="M72.9479 0.760003C73.6374 1.13334 74.1775 1.68667 74.5682 2.42C74.9704 3.15334 75.1715 3.96667 75.1715 4.86C75.1715 5.9 74.8957 6.83334 74.3441 7.66C73.804 8.47334 73.1088 9.01334 72.2585 9.28L75.3094 14.22H74.551L71.6035 9.42L71.0519 9.44H66.7254V14.22H66.0877V0.300003H70.6554C71.1611 0.300003 71.592 0.340003 71.9482 0.420003C72.3159 0.48667 72.6492 0.600003 72.9479 0.760003ZM71.2243 8.7C71.8218 8.7 72.3734 8.52667 72.879 8.18C73.3846 7.83334 73.7868 7.36667 74.0856 6.78C74.3843 6.19334 74.5337 5.55334 74.5337 4.86C74.5337 4.08667 74.3556 3.38667 73.9994 2.76C73.6546 2.13334 73.172 1.66667 72.5515 1.36C72.1033 1.14667 71.4713 1.04 70.6554 1.04H66.7254V8.7H71.2243Z" fill="black"/>
<path d="M60.0852 11.36C59.775 12.28 59.2119 13.04 58.396 13.64C57.5801 14.2267 56.7068 14.52 55.776 14.52C54.8797 14.52 54.0523 14.26 53.2939 13.74C52.5355 13.22 51.9322 12.5067 51.484 11.6C51.0474 10.68 50.829 9.67333 50.829 8.58V5.78C50.829 4.71333 51.0474 3.74 51.484 2.86C51.9322 1.98 52.5297 1.28667 53.2767 0.779999C54.0351 0.26 54.8682 0 55.776 0C56.5229 0 57.2067 0.146667 57.8272 0.44C58.4477 0.72 58.9763 1.13333 59.413 1.68C59.7692 2.13333 60.0565 2.64 60.2748 3.2C60.5047 3.76 60.6196 4.32667 60.6196 4.9H59.999C59.9875 4.40667 59.8784 3.92 59.6715 3.44C59.4762 2.96 59.2234 2.52667 58.9131 2.14C58.1432 1.20667 57.0975 0.74 55.776 0.74C54.9831 0.74 54.2534 0.966666 53.5869 1.42C52.9319 1.86 52.4148 2.46667 52.0356 3.24C51.6564 4 51.4668 4.84667 51.4668 5.78V8.58C51.4668 9.55333 51.6564 10.44 52.0356 11.24C52.4263 12.0267 52.9492 12.6467 53.6042 13.1C54.2707 13.5533 54.9946 13.78 55.776 13.78C56.5689 13.78 57.2929 13.56 57.9479 13.12C58.6143 12.6667 59.1372 12.06 59.5164 11.3C59.8956 10.5267 60.0852 9.68667 60.0852 8.78V8.08H55.776V7.34H60.723V14.22H60.0852V11.36Z" fill="black"/>
<path d="M39.139 0.300003L43.3965 7.74L47.6195 0.300003H48.3779L43.7067 8.52V14.22H43.069V8.52L38.3806 0.300003H39.139Z" fill="black"/>
<path d="M31.5687 0.300003H32.2409L37.1707 14.22H36.4812L34.8609 9.62H28.9487L27.3112 14.22H26.639L31.5687 0.300003ZM29.2073 8.9H34.6024L31.8962 1.26L29.2073 8.9Z" fill="black"/>
<path d="M13.7073 14.22V0.300003H14.3451V13.48H22.705V14.22H13.7073Z" fill="black"/>
<path d="M9.48026 14.22V0.220001H4.46433C3.62547 0.220001 2.90153 0.401036 2.29249 0.763105C1.59153 1.17881 1.0342 1.77556 0.620519 2.55333C0.206835 3.3177 -6.61612e-06 4.16253 -6.61612e-06 5.08782C-6.61612e-06 6.0131 0.206835 6.86464 0.620519 7.64241C1.02271 8.42019 1.57429 9.01694 2.27526 9.43264C2.8728 9.79471 3.60249 9.97575 4.46433 9.97575H6.34315V14.22H9.48026Z" fill="black"/>
</svg>
