<svg width="161" height="15" viewBox="0 0 161 15" fill="none" xmlns="http://www.w3.org/2000/svg">
<path d="M154.502 0.300003C155.516 0.300003 156.449 0.553337 157.302 1.06C158.169 1.56667 158.856 2.25334 159.362 3.12C159.869 3.97334 160.122 4.90667 160.122 5.92V8.6C160.122 9.61334 159.869 10.5533 159.362 11.42C158.856 12.2733 158.169 12.9533 157.302 13.46C156.449 13.9667 155.516 14.22 154.502 14.22H149.362V0.300003H154.502ZM159.382 5.92C159.382 5.04 159.162 4.22667 158.722 3.48C158.282 2.73334 157.682 2.14 156.922 1.7C156.176 1.26 155.362 1.04 154.482 1.04H150.102V13.48H154.482C155.362 13.48 156.176 13.26 156.922 12.82C157.682 12.38 158.282 11.7867 158.722 11.04C159.162 10.2933 159.382 9.48 159.382 8.6V5.92Z" fill="black"/>
<path d="M116 0.220001H116.724V8.68695C116.724 9.55334 116.94 10.3541 117.37 11.0892C117.801 11.8243 118.381 12.4085 119.112 12.8417C119.843 13.2749 120.639 13.4915 121.5 13.4915C122.361 13.4915 123.157 13.2749 123.888 12.8417C124.619 12.4085 125.199 11.8243 125.63 11.0892C126.06 10.3541 126.276 9.55334 126.276 8.68695V0.220001H127V8.68695C127 9.68461 126.752 10.6101 126.256 11.4633C125.76 12.3035 125.088 12.9729 124.24 13.4718C123.405 13.9706 122.492 14.22 121.5 14.22C120.508 14.22 119.588 13.9706 118.74 13.4718C117.905 12.9729 117.24 12.3035 116.744 11.4633C116.248 10.6101 116 9.68461 116 8.68695V0.220001Z" fill="black"/>
<path d="M132 14H132.724V5.53305C132.724 4.66667 132.94 3.86592 133.37 3.1308C133.801 2.39569 134.381 1.81153 135.112 1.37834C135.843 0.945147 136.639 0.728551 137.5 0.728551C138.361 0.728551 139.157 0.945147 139.888 1.37834C140.619 1.81153 141.199 2.39569 141.63 3.1308C142.06 3.86592 142.276 4.66667 142.276 5.53305V14H143V5.53305C143 4.53539 142.752 3.60994 142.256 2.75668C141.76 1.91655 141.088 1.24707 140.24 0.74824C139.405 0.249412 138.492 0 137.5 0C136.508 0 135.588 0.249412 134.74 0.74824C133.905 1.24707 133.24 1.91655 132.744 2.75668C132.248 3.60994 132 4.53539 132 5.53305V14Z" fill="black"/>
<path d="M104.228 0C105.268 0 106.228 0.26 107.108 0.779999C107.988 1.28667 108.681 1.98 109.188 2.86C109.708 3.74 109.968 4.7 109.968 5.74V8.78C109.968 9.82 109.708 10.78 109.188 11.66C108.681 12.54 107.988 13.24 107.108 13.76C106.228 14.2667 105.268 14.52 104.228 14.52C103.188 14.52 102.228 14.2667 101.348 13.76C100.468 13.24 99.7681 12.54 99.2481 11.66C98.7415 10.78 98.4881 9.82 98.4881 8.78V5.74C98.4881 4.7 98.7415 3.74 99.2481 2.86C99.7681 1.98 100.468 1.28667 101.348 0.779999C102.228 0.26 103.188 0 104.228 0ZM99.2281 8.78C99.2281 9.68667 99.4481 10.5267 99.8881 11.3C100.341 12.06 100.948 12.6667 101.708 13.12C102.481 13.56 103.321 13.78 104.228 13.78C105.135 13.78 105.968 13.56 106.728 13.12C107.501 12.6667 108.108 12.06 108.548 11.3C109.001 10.5267 109.228 9.68667 109.228 8.78V5.74C109.228 4.83333 109.001 4 108.548 3.24C108.108 2.46667 107.501 1.86 106.728 1.42C105.968 0.966666 105.135 0.74 104.228 0.74C103.321 0.74 102.481 0.966666 101.708 1.42C100.948 1.86 100.341 2.46667 99.8881 3.24C99.4481 4 99.2281 4.83333 99.2281 5.74V8.78Z" fill="black"/>
<path d="M90.4434 0.760003C91.2434 1.13334 91.8701 1.68667 92.3234 2.42C92.7901 3.15334 93.0234 3.96667 93.0234 4.86C93.0234 5.9 92.7034 6.83334 92.0634 7.66C91.4368 8.47334 90.6301 9.01334 89.6434 9.28L93.1834 14.22H92.3034L88.8834 9.42L88.2434 9.44H83.2234V14.22H82.4834V0.300003H87.7834C88.3701 0.300003 88.8701 0.340003 89.2834 0.420003C89.7101 0.48667 90.0968 0.600003 90.4434 0.760003ZM88.4434 8.7C89.1368 8.7 89.7768 8.52667 90.3634 8.18C90.9501 7.83334 91.4168 7.36667 91.7634 6.78C92.1101 6.19334 92.2834 5.55334 92.2834 4.86C92.2834 4.08667 92.0768 3.38667 91.6634 2.76C91.2634 2.13334 90.7034 1.66667 89.9834 1.36C89.4634 1.14667 88.7301 1.04 87.7834 1.04H83.2234V8.7H88.4434Z" fill="black"/>
<path d="M75.5188 11.36C75.1588 12.28 74.5054 13.04 73.5588 13.64C72.6121 14.2267 71.5988 14.52 70.5188 14.52C69.4788 14.52 68.5187 14.26 67.6387 13.74C66.7587 13.22 66.0587 12.5067 65.5387 11.6C65.0321 10.68 64.7787 9.67333 64.7787 8.58V5.78C64.7787 4.71333 65.0321 3.74 65.5387 2.86C66.0587 1.98 66.7521 1.28667 67.6188 0.779999C68.4988 0.26 69.4654 0 70.5188 0C71.3854 0 72.1788 0.146667 72.8988 0.44C73.6188 0.72 74.2321 1.13333 74.7388 1.68C75.1521 2.13333 75.4854 2.64 75.7388 3.2C76.0054 3.76 76.1387 4.32667 76.1387 4.9H75.4187C75.4054 4.40667 75.2787 3.92 75.0387 3.44C74.8121 2.96 74.5188 2.52667 74.1588 2.14C73.2654 1.20667 72.0521 0.74 70.5188 0.74C69.5988 0.74 68.7521 0.966666 67.9788 1.42C67.2188 1.86 66.6187 2.46667 66.1787 3.24C65.7387 4 65.5188 4.84667 65.5188 5.78V8.58C65.5188 9.55333 65.7387 10.44 66.1787 11.24C66.6321 12.0267 67.2387 12.6467 67.9987 13.1C68.7721 13.5533 69.6121 13.78 70.5188 13.78C71.4388 13.78 72.2787 13.56 73.0387 13.12C73.8121 12.6667 74.4187 12.06 74.8587 11.3C75.2987 10.5267 75.5188 9.68667 75.5188 8.78V8.08H70.5188V7.34H76.2588V14.22H75.5188V11.36Z" fill="black"/>
<path d="M48.8941 0.300003L53.8341 7.74L58.7341 0.300003H59.6141L54.1941 8.52V14.22H53.4541V8.52L48.0141 0.300003H48.8941Z" fill="black"/>
<path d="M36.6294 0.300003H37.4094L43.1294 14.22H42.3294L40.4494 9.62H33.5894L31.6894 14.22H30.9094L36.6294 0.300003ZM33.8894 8.9H40.1494L37.0094 1.26L33.8894 8.9Z" fill="black"/>
<path d="M15.9047 14.22V0.300003H16.6447V13.48H26.3447V14.22H15.9047Z" fill="black"/>
<path d="M11 14.22V0.220001H5.18C4.20667 0.220001 3.36667 0.401036 2.66 0.763105C1.84667 1.17881 1.2 1.77556 0.719999 2.55333C0.24 3.3177 0 4.16253 0 5.08782C0 6.0131 0.24 6.86464 0.719999 7.64241C1.18667 8.42019 1.82667 9.01694 2.64 9.43264C3.33333 9.79471 4.18 9.97575 5.18 9.97575H7.36V14.22H11Z" fill="black"/>
</svg>
