<svg width="149" height="14" viewBox="0 0 149 14" fill="none" xmlns="http://www.w3.org/2000/svg">
<path d="M148.226 8.45999C148.226 9.48666 148.013 10.42 147.586 11.26C147.159 12.1 146.559 12.7667 145.786 13.26C145.013 13.7533 144.113 14 143.086 14H138.166V11.98H143.086C143.739 11.98 144.293 11.8267 144.746 11.52C145.213 11.2 145.573 10.7733 145.826 10.24C146.079 9.70666 146.206 9.11333 146.206 8.45999C146.206 7.80666 146.079 7.21999 145.826 6.69999C145.573 6.17999 145.213 5.76666 144.746 5.45999C144.293 5.13999 143.739 4.97999 143.086 4.97999H137.226V14H135.186V2.95999H143.086C144.113 2.95999 145.013 3.20666 145.786 3.69999C146.559 4.19332 147.159 4.85333 147.586 5.67999C148.013 6.50666 148.226 7.43333 148.226 8.45999Z" fill="url(#paint0_linear_2_159)"/>
<path d="M130.306 14C130.306 13.12 130.132 12.28 129.786 11.48C129.452 10.6667 128.999 9.91333 128.426 9.22C127.852 8.52667 127.212 7.9 126.506 7.34C125.799 6.78 125.072 6.31333 124.326 5.94C123.592 5.56667 122.886 5.3 122.206 5.14V14H120.206V3H121.286V3.02C122.006 3.06 122.766 3.22 123.566 3.5C124.379 3.76667 125.192 4.14 126.006 4.62C126.819 5.1 127.592 5.66 128.326 6.3C129.072 6.94 129.732 7.65333 130.306 8.44V3H132.306V14H130.306Z" fill="url(#paint1_linear_2_159)"/>
<path d="M117.515 3V8.5C117.515 9.26 117.369 9.97333 117.075 10.64C116.795 11.3067 116.402 11.8933 115.895 12.4C115.402 12.8933 114.822 13.2867 114.155 13.58C113.502 13.86 112.795 14 112.035 14H110.935C110.175 14 109.462 13.86 108.795 13.58C108.142 13.2867 107.562 12.8867 107.055 12.38C106.562 11.8733 106.169 11.2933 105.875 10.64C105.595 9.97333 105.455 9.26 105.455 8.5V3H107.455V8.5C107.455 9.14 107.609 9.72667 107.915 10.26C108.235 10.7933 108.655 11.22 109.175 11.54C109.709 11.8467 110.295 12 110.935 12H112.035C112.689 12 113.275 11.8467 113.795 11.54C114.315 11.22 114.729 10.7933 115.035 10.26C115.355 9.72667 115.515 9.14 115.515 8.5V3H117.515Z" fill="url(#paint2_linear_2_159)"/>
<path d="M103.42 8.48C103.42 9.49333 103.206 10.42 102.78 11.26C102.366 12.0867 101.78 12.7533 101.02 13.26C100.26 13.7533 99.3729 14 98.3595 14H94.8795C93.8662 14 92.9729 13.7533 92.1995 13.26C91.4395 12.7533 90.8462 12.0867 90.4195 11.26C90.0062 10.42 89.7995 9.49333 89.7995 8.48C89.7995 7.46667 90.0062 6.54667 90.4195 5.72C90.8462 4.89333 91.4395 4.23333 92.1995 3.74C92.9729 3.24667 93.8662 3 94.8795 3H98.3595C99.3729 3 100.26 3.24667 101.02 3.74C101.78 4.23333 102.366 4.89333 102.78 5.72C103.206 6.54667 103.42 7.46667 103.42 8.48ZM101.42 8.48C101.42 7.84 101.3 7.25333 101.06 6.72C100.82 6.18667 100.466 5.76667 99.9995 5.46C99.5462 5.14 98.9995 4.98 98.3595 4.98H94.8795C94.2395 4.98 93.6862 5.14 93.2195 5.46C92.7662 5.76667 92.4129 6.18667 92.1595 6.72C91.9195 7.25333 91.7995 7.84 91.7995 8.48C91.7995 9.12 91.9195 9.70667 92.1595 10.24C92.4129 10.7733 92.7662 11.2 93.2195 11.52C93.6862 11.84 94.2395 12 94.8795 12H98.3595C98.9995 12 99.5462 11.84 99.9995 11.52C100.466 11.2 100.82 10.7733 101.06 10.24C101.3 9.70667 101.42 9.12 101.42 8.48Z" fill="url(#paint3_linear_2_159)"/>
<path d="M88.4386 14H85.7186L82.5986 11.02H78.5386V9.04H84.0786C84.6386 9.04 85.1119 8.84 85.4986 8.44C85.8986 8.02667 86.0986 7.54667 86.0986 7C86.0986 6.44 85.8986 5.96667 85.4986 5.58C85.1119 5.18 84.6386 4.98 84.0786 4.98H77.4986V14H75.4986V3H84.0786C84.8253 3 85.4986 3.18 86.0986 3.54C86.6986 3.9 87.1786 4.38667 87.5386 5C87.8986 5.6 88.0786 6.26667 88.0786 7C88.0786 7.6 87.9519 8.16667 87.6986 8.7C87.4586 9.22 87.1186 9.67333 86.6786 10.06C86.2519 10.4333 85.7586 10.7 85.1986 10.86L88.4386 14Z" fill="url(#paint4_linear_2_159)"/>
<path d="M72.9575 14H65.8575C64.8308 14 63.9308 13.7533 63.1575 13.26C62.3842 12.7667 61.7842 12.1 61.3575 11.26C60.9308 10.42 60.7175 9.48666 60.7175 8.45999C60.7175 7.43333 60.9308 6.50666 61.3575 5.67999C61.7842 4.85333 62.3842 4.19332 63.1575 3.69999C63.9308 3.20666 64.8308 2.95999 65.8575 2.95999H72.9575V4.97999H65.8575C65.2175 4.97999 64.6642 5.13999 64.1975 5.45999C63.7308 5.76666 63.3708 6.17999 63.1175 6.69999C62.8642 7.21999 62.7375 7.80666 62.7375 8.45999C62.7375 9.11333 62.8642 9.70666 63.1175 10.24C63.3708 10.7733 63.7308 11.2 64.1975 11.52C64.6642 11.8267 65.2175 11.98 65.8575 11.98H70.9375V9.43999H65.1975V7.41999H72.9575V14Z" fill="url(#paint5_linear_2_159)"/>
<path d="M58.597 10.76C58.597 11.36 58.417 11.9067 58.057 12.4C57.697 12.88 57.2104 13.2667 56.597 13.56C55.997 13.8533 55.3304 14 54.597 14H45.997V12H54.597C55.1437 12 55.6104 11.88 55.997 11.64C56.397 11.4 56.597 11.1067 56.597 10.76V10.26H49.977C49.2437 10.26 48.577 10.08 47.977 9.72C47.377 9.36 46.897 8.88 46.537 8.28C46.177 7.66667 45.997 6.99333 45.997 6.26V3H47.977V6.26C47.977 6.82 48.1704 7.29333 48.557 7.68C48.957 8.06667 49.4304 8.26 49.977 8.26H56.597V3H58.597V10.76Z" fill="url(#paint6_linear_2_159)"/>
<path d="M43.5083 14H41.5083V10.98H33.8083V8.93999H41.5083V4.97999H36.3083C35.6549 4.97999 35.0616 5.13999 34.5283 5.45999C33.995 5.77999 33.5683 6.20666 33.2483 6.73999C32.9283 7.25999 32.7683 7.84666 32.7683 8.49999V14H30.7483V8.49999C30.7483 7.73999 30.8883 7.02666 31.1683 6.35999C31.4616 5.67999 31.8616 5.08666 32.3683 4.57999C32.8883 4.07333 33.4816 3.67999 34.1483 3.39999C34.8283 3.10666 35.5483 2.95999 36.3083 2.95999H43.5083V14Z" fill="url(#paint7_linear_2_159)"/>
<path d="M29.2217 14H18.7017V3H20.7017V12H29.2217V14Z" fill="url(#paint8_linear_2_159)"/>
<path d="M16.84 5C16.84 5.92 16.6133 6.76 16.16 7.52C15.72 8.26667 15.12 8.86667 14.36 9.32C13.6 9.77333 12.76 10 11.84 10H3.8V8.02H11.84C12.4 8.02 12.9067 7.88667 13.36 7.62C13.8133 7.34 14.1733 6.97333 14.44 6.52C14.7067 6.05333 14.84 5.54667 14.84 5C14.84 4.44 14.7067 3.93333 14.44 3.48C14.1733 3.02667 13.8133 2.66667 13.36 2.4C12.9067 2.13333 12.4 2 11.84 2H2.68V14H0.68V0H11.84C12.76 0 13.6 0.226667 14.36 0.680001C15.12 1.12 15.72 1.72 16.16 2.48C16.6133 3.24 16.84 4.08 16.84 5Z" fill="url(#paint9_linear_2_159)"/>
<defs>
<linearGradient id="paint0_linear_2_159" x1="74" y1="-5" x2="74" y2="19" gradientUnits="userSpaceOnUse">
<stop stop-color="#FF0000"/>
<stop offset="1" stop-color="#FF6200"/>
</linearGradient>
<linearGradient id="paint1_linear_2_159" x1="74" y1="-5" x2="74" y2="19" gradientUnits="userSpaceOnUse">
<stop stop-color="#FF0000"/>
<stop offset="1" stop-color="#FF6200"/>
</linearGradient>
<linearGradient id="paint2_linear_2_159" x1="74" y1="-5" x2="74" y2="19" gradientUnits="userSpaceOnUse">
<stop stop-color="#FF0000"/>
<stop offset="1" stop-color="#FF6200"/>
</linearGradient>
<linearGradient id="paint3_linear_2_159" x1="74" y1="-5" x2="74" y2="19" gradientUnits="userSpaceOnUse">
<stop stop-color="#FF0000"/>
<stop offset="1" stop-color="#FF6200"/>
</linearGradient>
<linearGradient id="paint4_linear_2_159" x1="74" y1="-5" x2="74" y2="19" gradientUnits="userSpaceOnUse">
<stop stop-color="#FF0000"/>
<stop offset="1" stop-color="#FF6200"/>
</linearGradient>
<linearGradient id="paint5_linear_2_159" x1="74" y1="-5" x2="74" y2="19" gradientUnits="userSpaceOnUse">
<stop stop-color="#FF0000"/>
<stop offset="1" stop-color="#FF6200"/>
</linearGradient>
<linearGradient id="paint6_linear_2_159" x1="74" y1="-5" x2="74" y2="19" gradientUnits="userSpaceOnUse">
<stop stop-color="#FF0000"/>
<stop offset="1" stop-color="#FF6200"/>
</linearGradient>
<linearGradient id="paint7_linear_2_159" x1="74" y1="-5" x2="74" y2="19" gradientUnits="userSpaceOnUse">
<stop stop-color="#FF0000"/>
<stop offset="1" stop-color="#FF6200"/>
</linearGradient>
<linearGradient id="paint8_linear_2_159" x1="74" y1="-5" x2="74" y2="19" gradientUnits="userSpaceOnUse">
<stop stop-color="#FF0000"/>
<stop offset="1" stop-color="#FF6200"/>
</linearGradient>
<linearGradient id="paint9_linear_2_159" x1="74" y1="-5" x2="74" y2="19" gradientUnits="userSpaceOnUse">
<stop stop-color="#FF0000"/>
<stop offset="1" stop-color="#FF6200"/>
</linearGradient>
</defs>
</svg>
