<svg width="143" height="16" viewBox="0 0 143 16" fill="none" xmlns="http://www.w3.org/2000/svg">
<path d="M137.235 15H130.495C130.241 15 130.055 14.9467 129.935 14.84C129.828 14.72 129.775 14.5333 129.775 14.28V1.32001C129.775 1.06667 129.828 0.886673 129.935 0.780006C130.055 0.660006 130.241 0.600006 130.495 0.600006H137.235C138.901 0.600006 140.135 0.933339 140.935 1.60001C141.748 2.26667 142.155 3.29334 142.155 4.68001V10.92C142.155 12.3067 141.748 13.3333 140.935 14C140.135 14.6667 138.901 15 137.235 15ZM131.955 13.2H136.795C137.475 13.2 138.028 13.1333 138.455 13C138.881 12.8533 139.208 12.66 139.435 12.42C139.661 12.18 139.808 11.8933 139.875 11.56C139.955 11.2267 139.995 10.8667 139.995 10.48V5.18001C139.995 4.79334 139.955 4.43334 139.875 4.10001C139.795 3.75334 139.641 3.46001 139.415 3.22001C139.188 2.96667 138.861 2.76667 138.435 2.62001C138.021 2.47334 137.475 2.40001 136.795 2.40001H131.955V13.2ZM136.795 2.60001C137.421 2.60001 137.928 2.66667 138.315 2.80001C138.715 2.93334 139.021 3.11334 139.235 3.34001C139.448 3.56667 139.595 3.84001 139.675 4.16001C139.755 4.48001 139.795 4.82001 139.795 5.18001V10.48C139.795 10.84 139.755 11.18 139.675 11.5C139.608 11.8067 139.468 12.0733 139.255 12.3C139.041 12.5133 138.735 12.6867 138.335 12.82C137.948 12.94 137.435 13 136.795 13H132.155V2.60001H136.795ZM134.315 4.42001V11.22H136.695C137.015 11.22 137.248 11.14 137.395 10.98C137.555 10.82 137.635 10.5733 137.635 10.24V5.38001C137.635 5.04667 137.555 4.80667 137.395 4.66001C137.248 4.50001 137.015 4.42001 136.695 4.42001H134.315Z" fill="url(#paint0_linear_2_171)"/>
<path d="M117.356 2.56001C117.289 2.49334 117.236 2.44667 117.196 2.42001C117.156 2.39334 117.109 2.38001 117.056 2.38001C117.003 2.38001 116.949 2.40001 116.896 2.44001C116.843 2.48001 116.816 2.54001 116.816 2.62001V13.2H117.016V2.66001C117.016 2.64667 117.016 2.63334 117.016 2.62001C117.029 2.60667 117.043 2.60001 117.056 2.60001C117.069 2.60001 117.083 2.60667 117.096 2.62001C117.123 2.63334 117.143 2.64667 117.156 2.66001L124.716 11.14V13.2H124.916V2.40001H124.716V10.84L117.356 2.56001ZM118.436 15H115.436C115.183 15 114.996 14.9467 114.876 14.84C114.769 14.72 114.716 14.5333 114.716 14.28V1.32001C114.716 1.06667 114.769 0.886673 114.876 0.780006C114.996 0.660006 115.183 0.600006 115.436 0.600006H117.516C117.769 0.600006 117.983 0.640006 118.156 0.720006C118.343 0.800007 118.523 0.940006 118.696 1.14001L122.576 5.58001V1.32001C122.576 1.06667 122.629 0.886673 122.736 0.780006C122.856 0.660006 123.043 0.600006 123.296 0.600006H126.296C126.549 0.600006 126.729 0.660006 126.836 0.780006C126.956 0.886673 127.016 1.06667 127.016 1.32001V14.28C127.016 14.5333 126.956 14.72 126.836 14.84C126.729 14.9467 126.549 15 126.296 15H123.296C123.043 15 122.856 14.9467 122.736 14.84C122.629 14.72 122.576 14.5333 122.576 14.28V11.82L119.156 7.68001V14.28C119.156 14.5333 119.096 14.72 118.976 14.84C118.869 14.9467 118.689 15 118.436 15Z" fill="url(#paint1_linear_2_171)"/>
<path d="M112.054 11.22C112.054 11.8333 111.961 12.3933 111.774 12.9C111.601 13.3933 111.281 13.82 110.814 14.18C110.361 14.5267 109.734 14.8 108.934 15C108.134 15.2 107.114 15.3 105.874 15.3C104.634 15.3 103.614 15.2 102.814 15C102.014 14.8 101.381 14.5267 100.914 14.18C100.461 13.82 100.141 13.3933 99.9541 12.9C99.7807 12.3933 99.6941 11.8333 99.6941 11.22V1.32001C99.6941 1.06667 99.7474 0.886673 99.8541 0.780006C99.9741 0.660006 100.161 0.600006 100.414 0.600006H103.554C103.807 0.600006 103.987 0.660006 104.094 0.780006C104.214 0.886673 104.274 1.06667 104.274 1.32001V10.44C104.274 10.7067 104.374 10.9333 104.574 11.12C104.774 11.2933 105.221 11.38 105.914 11.38C106.621 11.38 107.074 11.2933 107.274 11.12C107.474 10.9333 107.574 10.7067 107.574 10.44V1.32001C107.574 1.06667 107.627 0.886673 107.734 0.780006C107.854 0.660006 108.041 0.600006 108.294 0.600006H111.334C111.587 0.600006 111.767 0.660006 111.874 0.780006C111.994 0.886673 112.054 1.06667 112.054 1.32001V11.22ZM101.894 2.40001V10.74C101.894 11.54 102.167 12.1933 102.714 12.7C103.274 13.1933 104.334 13.44 105.894 13.44C107.454 13.44 108.514 13.1933 109.074 12.7C109.634 12.1933 109.914 11.54 109.914 10.74V2.40001H109.714V10.74C109.714 11.4867 109.447 12.0933 108.914 12.56C108.381 13.0133 107.374 13.24 105.894 13.24C104.414 13.24 103.407 13.0133 102.874 12.56C102.354 12.0933 102.094 11.4867 102.094 10.74V2.40001H101.894Z" fill="url(#paint2_linear_2_171)"/>
<path d="M97.248 11.22C97.248 11.8333 97.1546 12.3933 96.968 12.9C96.7946 13.3933 96.4746 13.82 96.008 14.18C95.5546 14.5267 94.9213 14.8 94.108 15C93.308 15.2 92.288 15.3 91.048 15.3C89.808 15.3 88.7813 15.2 87.968 15C87.1546 14.8 86.5146 14.5267 86.048 14.18C85.5946 13.82 85.2746 13.3933 85.088 12.9C84.9146 12.3933 84.828 11.8333 84.828 11.22V4.39999C84.828 3.78665 84.9146 3.23332 85.088 2.73999C85.2746 2.23332 85.5946 1.79999 86.048 1.43999C86.5146 1.07999 87.1546 0.799987 87.968 0.599988C88.7813 0.399988 89.808 0.299988 91.048 0.299988C92.288 0.299988 93.308 0.399988 94.108 0.599988C94.9213 0.799987 95.5546 1.07999 96.008 1.43999C96.4746 1.79999 96.7946 2.23332 96.968 2.73999C97.1546 3.23332 97.248 3.78665 97.248 4.39999V11.22ZM95.068 10.76V4.85999C95.068 4.05999 94.7813 3.41332 94.208 2.91999C93.6346 2.41332 92.568 2.15999 91.008 2.15999C89.448 2.15999 88.388 2.41332 87.828 2.91999C87.268 3.41332 86.988 4.05999 86.988 4.85999V10.76C86.988 11.56 87.268 12.2133 87.828 12.72C88.388 13.2133 89.448 13.46 91.008 13.46C92.568 13.46 93.6346 13.2133 94.208 12.72C94.7813 12.2133 95.068 11.56 95.068 10.76ZM87.188 10.76V4.85999C87.188 4.11332 87.4546 3.51332 87.988 3.05999C88.5213 2.59332 89.528 2.35999 91.008 2.35999C92.488 2.35999 93.5013 2.59332 94.048 3.05999C94.5946 3.51332 94.868 4.11332 94.868 4.85999V10.76C94.868 11.5067 94.5946 12.1133 94.048 12.58C93.5013 13.0333 92.488 13.26 91.008 13.26C89.528 13.26 88.5213 13.0333 87.988 12.58C87.4546 12.1133 87.188 11.5067 87.188 10.76ZM89.368 10.5C89.368 10.7667 89.468 10.9933 89.668 11.18C89.868 11.3533 90.328 11.44 91.048 11.44C91.768 11.44 92.228 11.3533 92.428 11.18C92.628 10.9933 92.728 10.7667 92.728 10.5V5.11999C92.728 4.86665 92.628 4.65332 92.428 4.47999C92.228 4.29332 91.768 4.19999 91.048 4.19999C90.328 4.19999 89.868 4.29332 89.668 4.47999C89.468 4.65332 89.368 4.86665 89.368 5.11999V10.5Z" fill="url(#paint3_linear_2_171)"/>
<path d="M77.0023 2.60001C77.709 2.60001 78.229 2.79334 78.5624 3.18001C78.909 3.56667 79.0824 4.06667 79.0824 4.68001V6.08001C79.0824 6.81334 78.9424 7.38001 78.6624 7.78001C78.3824 8.18001 77.829 8.38001 77.0023 8.38001H72.6423V2.60001H77.0023ZM74.8024 4.20001V6.76001H76.3024C76.649 6.76001 76.8823 6.67334 77.0023 6.50001C77.1223 6.31334 77.1824 6.08667 77.1824 5.82001V5.14001C77.1824 4.87334 77.1223 4.65334 77.0023 4.48001C76.8823 4.29334 76.649 4.20001 76.3024 4.20001H74.8024ZM72.6423 13.2V8.56001H78.3024C79.0624 8.56001 79.6224 8.72667 79.9824 9.06001C80.3424 9.38001 80.5224 9.86667 80.5224 10.52V13.2H80.7224V10.52C80.7224 9.82667 80.5224 9.30001 80.1224 8.94001C79.7224 8.56667 79.1157 8.38001 78.3024 8.38001H78.0824C78.5624 8.23334 78.8824 7.96667 79.0424 7.58001C79.2024 7.18001 79.2824 6.67334 79.2824 6.06001V4.68001C79.2824 4.02667 79.0957 3.48667 78.7224 3.06001C78.349 2.62001 77.7757 2.40001 77.0023 2.40001H72.4424V13.2H72.6423ZM74.0824 15H71.0023C70.749 15 70.5624 14.9467 70.4424 14.84C70.3357 14.72 70.2823 14.5333 70.2823 14.28V1.32001C70.2823 1.06667 70.3357 0.886673 70.4424 0.780006C70.5624 0.660006 70.749 0.600006 71.0023 0.600006H77.6624C79.1557 0.600006 80.1823 0.913339 80.7423 1.54001C81.3157 2.15334 81.6024 2.95334 81.6024 3.94001V4.86001C81.6024 5.42001 81.5157 5.90001 81.3424 6.30001C81.1824 6.68667 80.8957 6.96667 80.4824 7.14001C81.2024 7.22001 81.7824 7.51334 82.2224 8.02001C82.6757 8.52667 82.9024 9.20001 82.9024 10.04V14.28C82.9024 14.5333 82.8424 14.72 82.7224 14.84C82.6157 14.9467 82.4357 15 82.1824 15H79.0824C78.829 15 78.6424 14.9467 78.5224 14.84C78.4157 14.72 78.3624 14.5333 78.3624 14.28V11.22C78.3624 10.9267 78.3024 10.7133 78.1824 10.58C78.0757 10.4333 77.8823 10.36 77.6023 10.36H74.8024V14.28C74.8024 14.5333 74.7424 14.72 74.6224 14.84C74.5157 14.9467 74.3357 15 74.0824 15Z" fill="url(#paint4_linear_2_171)"/>
<path d="M67.1222 15H60.8222C59.1555 15 57.9155 14.6667 57.1022 14C56.3022 13.3333 55.9022 12.3067 55.9022 10.92V4.68001C55.9022 3.29334 56.3022 2.26667 57.1022 1.60001C57.9155 0.933339 59.1555 0.600006 60.8222 0.600006H65.8222C66.0755 0.600006 66.2555 0.660006 66.3622 0.780006C66.4822 0.886673 66.5422 1.06667 66.5422 1.32001V3.74001C66.5422 3.99334 66.4822 4.18001 66.3622 4.30001C66.2555 4.40667 66.0755 4.46001 65.8222 4.46001H61.6622C61.2489 4.46001 60.9422 4.54667 60.7422 4.72001C60.5422 4.88001 60.4422 5.12667 60.4422 5.46001V10.24C60.4422 10.5733 60.5155 10.82 60.6622 10.98C60.8222 11.14 61.0555 11.22 61.3622 11.22H63.3022V8.10001C63.3022 7.84667 63.3555 7.66667 63.4622 7.56001C63.5822 7.44001 63.7689 7.38001 64.0222 7.38001H67.1222C67.3755 7.38001 67.5555 7.44001 67.6622 7.56001C67.7822 7.66667 67.8422 7.84667 67.8422 8.10001V14.28C67.8422 14.5333 67.7822 14.72 67.6622 14.84C67.5555 14.9467 67.3755 15 67.1222 15ZM61.6822 13.2H65.6622V9.18001H65.4622V13H61.6822C60.3355 13 59.4289 12.82 58.9622 12.46C58.5089 12.1 58.2822 11.4867 58.2822 10.62V5.02001C58.2822 4.14001 58.4889 3.52001 58.9022 3.16001C59.3155 2.78667 60.1089 2.60001 61.2822 2.60001H64.7422V2.40001H61.2822C60.0022 2.40001 59.1489 2.60001 58.7222 3.00001C58.2955 3.40001 58.0822 4.07334 58.0822 5.02001V10.62C58.0822 11.0867 58.1289 11.4867 58.2222 11.82C58.3289 12.14 58.5155 12.4067 58.7822 12.62C59.0489 12.82 59.4155 12.9667 59.8822 13.06C60.3489 13.1533 60.9489 13.2 61.6822 13.2Z" fill="url(#paint5_linear_2_171)"/>
<path d="M49.3206 15H46.0806C45.8273 15 45.6406 14.9467 45.5206 14.84C45.414 14.72 45.3606 14.5333 45.3606 14.28V11.72L42.3006 7.62001C41.994 7.20667 41.7873 6.84667 41.6806 6.54001C41.5873 6.23334 41.5406 5.77334 41.5406 5.16001V1.32001C41.5406 1.06667 41.594 0.886673 41.7006 0.780006C41.8206 0.660006 42.0073 0.600006 42.2606 0.600006H45.3406C45.594 0.600006 45.774 0.660006 45.8806 0.780006C46.0006 0.886673 46.0606 1.06667 46.0606 1.32001V4.60001C46.0606 4.73334 46.0673 4.87334 46.0806 5.02001C46.094 5.16667 46.1473 5.30667 46.2406 5.44001L47.1606 6.88001C47.2273 7.00001 47.294 7.08667 47.3606 7.14001C47.4406 7.19334 47.534 7.22001 47.6406 7.22001H47.8406C47.9473 7.22001 48.034 7.19334 48.1006 7.14001C48.1806 7.08667 48.254 7.00001 48.3206 6.88001L49.2406 5.44001C49.334 5.30667 49.3873 5.16667 49.4006 5.02001C49.414 4.87334 49.4206 4.73334 49.4206 4.60001V1.32001C49.4206 1.06667 49.474 0.886673 49.5806 0.780006C49.7006 0.660006 49.8873 0.600006 50.1406 0.600006H53.1206C53.374 0.600006 53.554 0.660006 53.6606 0.780006C53.7806 0.886673 53.8406 1.06667 53.8406 1.32001V5.16001C53.8406 5.77334 53.7873 6.23334 53.6806 6.54001C53.574 6.84667 53.374 7.20667 53.0806 7.62001L50.0406 11.74V14.28C50.0406 14.5333 49.9806 14.72 49.8606 14.84C49.754 14.9467 49.574 15 49.3206 15ZM47.9406 9.78001C48.2473 9.78001 48.514 9.71334 48.7406 9.58001C48.9806 9.44667 49.2073 9.23334 49.4206 8.94001L51.4206 6.24001C51.5806 6.02667 51.6673 5.79334 51.6806 5.54001C51.7073 5.27334 51.7206 4.99334 51.7206 4.70001V2.40001H51.5206V4.70001C51.5206 4.98001 51.5073 5.25334 51.4806 5.52001C51.454 5.77334 51.374 5.98667 51.2406 6.16001L49.2406 8.86001C49.0406 9.11334 48.834 9.30001 48.6206 9.42001C48.4206 9.52667 48.194 9.58001 47.9406 9.58001H47.4006C47.174 9.58001 46.9473 9.52667 46.7206 9.42001C46.494 9.31334 46.294 9.12667 46.1206 8.86001L44.1806 6.16001C44.0473 5.96001 43.9673 5.74001 43.9406 5.50001C43.914 5.24667 43.9006 4.98001 43.9006 4.70001V2.40001H43.7006V4.70001C43.7006 4.99334 43.714 5.27334 43.7406 5.54001C43.7673 5.80667 43.854 6.04001 44.0006 6.24001L45.9406 8.94001C46.154 9.23334 46.374 9.44667 46.6006 9.58001C46.8406 9.71334 47.1073 9.78001 47.4006 9.78001H47.6006V13.2H47.8006V9.78001H47.9406Z" fill="url(#paint6_linear_2_171)"/>
<path d="M29.9391 8.94001C29.9391 8.58001 29.9657 8.24667 30.0191 7.94001C30.0857 7.63334 30.1657 7.34667 30.2591 7.08001L31.5391 3.80001C31.6724 3.46667 31.8191 3.18667 31.9791 2.96001C32.1391 2.72001 32.4191 2.60001 32.8191 2.60001H34.7791C35.1524 2.60001 35.4191 2.72001 35.5791 2.96001C35.7391 3.18667 35.8924 3.47334 36.0391 3.82001L37.4191 7.08001C37.5124 7.34667 37.5857 7.63334 37.6391 7.94001C37.7057 8.24667 37.7391 8.58001 37.7391 8.94001V9.56001H29.9391V8.94001ZM33.1391 4.80001L32.1991 7.84001H35.3391L34.3991 4.80001C34.3457 4.68001 34.2857 4.59334 34.2191 4.54001C34.1657 4.48667 34.0991 4.46001 34.0191 4.46001H33.5191C33.4391 4.46001 33.3657 4.48667 33.2991 4.54001C33.2457 4.59334 33.1924 4.68001 33.1391 4.80001ZM37.7391 13.2H37.9391V8.94001C37.9391 8.56667 37.9057 8.22667 37.8391 7.92001C37.7857 7.60001 37.7057 7.29334 37.5991 7.00001L36.2191 3.74001C36.0591 3.35334 35.8857 3.03334 35.6991 2.78001C35.5257 2.52667 35.2191 2.40001 34.7791 2.40001H32.8191C32.3657 2.40001 32.0457 2.52667 31.8591 2.78001C31.6724 3.03334 31.5057 3.34667 31.3591 3.72001L30.0791 7.00001C29.9724 7.29334 29.8857 7.60001 29.8191 7.92001C29.7657 8.22667 29.7391 8.56667 29.7391 8.94001V13.2H29.9391V9.76001H37.7391V13.2ZM31.9991 14.28C31.9991 14.5333 31.9391 14.72 31.8191 14.84C31.7124 14.9467 31.5324 15 31.2791 15H28.3391C28.0857 15 27.8991 14.9467 27.7791 14.84C27.6724 14.72 27.6191 14.5333 27.6191 14.28V9.00001C27.6191 8.60001 27.6791 8.14001 27.7991 7.62001C27.9324 7.10001 28.1324 6.49334 28.3991 5.80001L30.1391 1.26001C30.2191 1.03334 30.3391 0.866673 30.4991 0.760006C30.6724 0.65334 30.8924 0.600006 31.1591 0.600006H36.5391C36.7924 0.600006 36.9991 0.65334 37.1591 0.760006C37.3324 0.866673 37.4591 1.03334 37.5391 1.26001L39.2791 5.80001C39.5457 6.49334 39.7391 7.10001 39.8591 7.62001C39.9924 8.14001 40.0591 8.60001 40.0591 9.00001V14.28C40.0591 14.5333 39.9991 14.72 39.8791 14.84C39.7724 14.9467 39.5924 15 39.3391 15H36.3191C36.0524 15 35.8524 14.9467 35.7191 14.84C35.5991 14.72 35.5391 14.5333 35.5391 14.28V11.48H31.9991V14.28Z" fill="url(#paint7_linear_2_171)"/>
<path d="M24.9128 15H14.7328C14.4795 15 14.2928 14.9467 14.1728 14.84C14.0661 14.72 14.0128 14.5333 14.0128 14.28V1.32001C14.0128 1.06667 14.0661 0.886673 14.1728 0.780006C14.2928 0.660006 14.4795 0.600006 14.7328 0.600006H17.8328C18.0861 0.600006 18.2661 0.660006 18.3728 0.780006C18.4928 0.886673 18.5528 1.06667 18.5528 1.32001V11.22H21.2928V7.98001C21.2928 7.72667 21.3461 7.54667 21.4528 7.44001C21.5728 7.32001 21.7595 7.26001 22.0128 7.26001H24.9128C25.1661 7.26001 25.3461 7.32001 25.4528 7.44001C25.5728 7.54667 25.6328 7.72667 25.6328 7.98001V14.28C25.6328 14.5333 25.5728 14.72 25.4528 14.84C25.3461 14.9467 25.1661 15 24.9128 15ZM16.1928 13.2H23.5528V9.06001H23.3528V13H16.3928V2.40001H16.1928V13.2Z" fill="url(#paint8_linear_2_171)"/>
<path d="M4.2 15H1.1C0.846664 15 0.659997 14.9467 0.539997 14.84C0.433331 14.72 0.379997 14.5333 0.379997 14.28V1.32001C0.379997 1.06667 0.433331 0.886673 0.539997 0.780006C0.659997 0.660006 0.846664 0.600006 1.1 0.600006H7.22C9.03333 0.600006 10.2733 0.960006 10.94 1.68001C11.6067 2.40001 11.94 3.34001 11.94 4.50001V7.06001C11.94 8.22001 11.6067 9.16001 10.94 9.88001C10.2733 10.6 9.03333 10.96 7.22 10.96H4.92V14.28C4.92 14.5333 4.86 14.72 4.74 14.84C4.63333 14.9467 4.45333 15 4.2 15ZM6.94 9.26001C7.56666 9.26001 8.07333 9.19334 8.46 9.06001C8.86 8.92667 9.16666 8.74667 9.38 8.52001C9.59333 8.28001 9.74 8.00001 9.82 7.68001C9.9 7.34667 9.94 6.98667 9.94 6.60001V5.12001C9.94 4.73334 9.9 4.37334 9.82 4.04001C9.74 3.70667 9.59333 3.42001 9.38 3.18001C9.16666 2.94001 8.86 2.75334 8.46 2.62001C8.07333 2.47334 7.56666 2.40001 6.94 2.40001H2.62V13.2H2.82V9.26001H6.94ZM2.82 9.06001V2.60001H6.94C7.52666 2.60001 8 2.66667 8.36 2.80001C8.73333 2.92001 9.02 3.09334 9.22 3.32001C9.42 3.54667 9.55333 3.81334 9.62 4.12001C9.7 4.42667 9.74 4.76001 9.74 5.12001V6.60001C9.74 6.96001 9.7 7.29334 9.62 7.60001C9.55333 7.89334 9.42 8.15334 9.22 8.38001C9.02 8.59334 8.73333 8.76001 8.36 8.88001C8 9.00001 7.52666 9.06001 6.94 9.06001H2.82ZM4.88 4.34001V7.36001H6.68C7.06666 7.36001 7.32 7.26001 7.44 7.06001C7.56 6.86001 7.62 6.63334 7.62 6.38001V5.32001C7.62 5.06667 7.56 4.84001 7.44 4.64001C7.32 4.44001 7.06666 4.34001 6.68 4.34001H4.88Z" fill="url(#paint9_linear_2_171)"/>
<defs>
<linearGradient id="paint0_linear_2_171" x1="71.5" y1="-4" x2="71.5" y2="20" gradientUnits="userSpaceOnUse">
<stop stop-color="#FF0000"/>
<stop offset="1" stop-color="#FF6200"/>
</linearGradient>
<linearGradient id="paint1_linear_2_171" x1="71.5" y1="-4" x2="71.5" y2="20" gradientUnits="userSpaceOnUse">
<stop stop-color="#FF0000"/>
<stop offset="1" stop-color="#FF6200"/>
</linearGradient>
<linearGradient id="paint2_linear_2_171" x1="71.5" y1="-4" x2="71.5" y2="20" gradientUnits="userSpaceOnUse">
<stop stop-color="#FF0000"/>
<stop offset="1" stop-color="#FF6200"/>
</linearGradient>
<linearGradient id="paint3_linear_2_171" x1="71.5" y1="-4" x2="71.5" y2="20" gradientUnits="userSpaceOnUse">
<stop stop-color="#FF0000"/>
<stop offset="1" stop-color="#FF6200"/>
</linearGradient>
<linearGradient id="paint4_linear_2_171" x1="71.5" y1="-4" x2="71.5" y2="20" gradientUnits="userSpaceOnUse">
<stop stop-color="#FF0000"/>
<stop offset="1" stop-color="#FF6200"/>
</linearGradient>
<linearGradient id="paint5_linear_2_171" x1="71.5" y1="-4" x2="71.5" y2="20" gradientUnits="userSpaceOnUse">
<stop stop-color="#FF0000"/>
<stop offset="1" stop-color="#FF6200"/>
</linearGradient>
<linearGradient id="paint6_linear_2_171" x1="71.5" y1="-4" x2="71.5" y2="20" gradientUnits="userSpaceOnUse">
<stop stop-color="#FF0000"/>
<stop offset="1" stop-color="#FF6200"/>
</linearGradient>
<linearGradient id="paint7_linear_2_171" x1="71.5" y1="-4" x2="71.5" y2="20" gradientUnits="userSpaceOnUse">
<stop stop-color="#FF0000"/>
<stop offset="1" stop-color="#FF6200"/>
</linearGradient>
<linearGradient id="paint8_linear_2_171" x1="71.5" y1="-4" x2="71.5" y2="20" gradientUnits="userSpaceOnUse">
<stop stop-color="#FF0000"/>
<stop offset="1" stop-color="#FF6200"/>
</linearGradient>
<linearGradient id="paint9_linear_2_171" x1="71.5" y1="-4" x2="71.5" y2="20" gradientUnits="userSpaceOnUse">
<stop stop-color="#FF0000"/>
<stop offset="1" stop-color="#FF6200"/>
</linearGradient>
</defs>
</svg>
