<svg width="151" height="14" viewBox="0 0 151 14" fill="none" xmlns="http://www.w3.org/2000/svg">
<path d="M146.715 1.4375C147.626 1.48958 148.375 1.84115 148.961 2.49219C149.547 3.13021 149.97 3.85938 150.23 4.67969C150.491 5.5 150.621 6.33984 150.621 7.19922C150.621 8.05859 150.491 8.89844 150.23 9.71875C149.983 10.5391 149.56 11.2747 148.961 11.9258C148.375 12.5638 147.626 12.9089 146.715 12.9609H139.527C139.176 12.9479 138.876 12.8242 138.629 12.5898C138.395 12.3424 138.271 12.043 138.258 11.6914V6.84766C138.271 6.48307 138.408 6.18359 138.668 5.94922C138.928 5.70182 139.241 5.57812 139.605 5.57812C139.957 5.59115 140.257 5.72135 140.504 5.96875C140.751 6.20312 140.882 6.49609 140.895 6.84766V9.81641C140.895 10.168 141.077 10.3438 141.441 10.3438H146.051C146.546 10.3177 146.956 10.1289 147.281 9.77734C147.607 9.42578 147.841 9.02865 147.984 8.58594C148.141 8.13021 148.219 7.66797 148.219 7.19922C148.219 6.73047 148.141 6.27474 147.984 5.83203C147.841 5.3763 147.607 4.97266 147.281 4.62109C146.956 4.26953 146.546 4.08073 146.051 4.05469H139.527C138.746 3.98958 138.323 3.56641 138.258 2.78516C138.258 2.42057 138.375 2.10807 138.609 1.84766C138.857 1.58724 139.163 1.45052 139.527 1.4375H146.715Z" fill="url(#paint0_linear_2_63)"/>
<path d="M129.547 0.910156C130.224 0.910156 130.888 0.988281 131.539 1.14453C132.203 1.30078 132.835 1.53516 133.434 1.84766C134.033 2.14714 134.56 2.55078 135.016 3.05859C135.484 3.56641 135.738 4.17188 135.777 4.875V5.69531V11.9258C135.699 12.707 135.27 13.1302 134.488 13.1953C134.124 13.1953 133.805 13.0781 133.531 12.8438C133.271 12.5964 133.141 12.2904 133.141 11.9258V5.48047C133.115 5.07682 132.958 4.74479 132.672 4.48438C132.398 4.21094 132.086 3.99609 131.734 3.83984C131.396 3.68359 131.038 3.56641 130.66 3.48828C130.296 3.41016 129.924 3.37109 129.547 3.37109C129.169 3.37109 128.792 3.41016 128.414 3.48828C128.049 3.56641 127.691 3.68359 127.34 3.83984C127.001 3.99609 126.689 4.21094 126.402 4.48438C126.129 4.74479 125.979 5.07682 125.953 5.48047V11.9258C125.888 12.707 125.465 13.1302 124.684 13.1953C124.319 13.1953 124 13.0781 123.727 12.8438C123.466 12.5964 123.336 12.2904 123.336 11.9258V5.69531V4.875C123.375 4.17188 123.622 3.56641 124.078 3.05859C124.534 2.55078 125.061 2.14714 125.66 1.84766C126.259 1.53516 126.884 1.30078 127.535 1.14453C128.199 0.988281 128.87 0.910156 129.547 0.910156Z" fill="url(#paint1_linear_2_63)"/>
<path d="M114.488 13.4102C113.811 13.4102 113.141 13.332 112.477 13.1758C111.826 13.0195 111.201 12.7917 110.602 12.4922C110.003 12.1797 109.475 11.7695 109.02 11.2617C108.564 10.7539 108.316 10.1484 108.277 9.44531V8.625V2.39453C108.277 2.02995 108.408 1.73047 108.668 1.49609C108.941 1.2487 109.26 1.125 109.625 1.125C110.406 1.1901 110.829 1.61328 110.895 2.39453V8.83984C110.921 9.24349 111.07 9.58203 111.344 9.85547C111.63 10.1159 111.943 10.3242 112.281 10.4805C112.633 10.6367 112.991 10.7539 113.355 10.832C113.733 10.9102 114.111 10.9492 114.488 10.9492C114.866 10.9492 115.237 10.9102 115.602 10.832C115.979 10.7539 116.337 10.6367 116.676 10.4805C117.027 10.3242 117.34 10.1159 117.613 9.85547C117.9 9.58203 118.056 9.24349 118.082 8.83984V2.39453C118.082 2.02995 118.212 1.73047 118.473 1.49609C118.746 1.2487 119.065 1.125 119.43 1.125C120.211 1.1901 120.641 1.61328 120.719 2.39453V8.625V9.44531C120.68 10.1484 120.426 10.7539 119.957 11.2617C119.501 11.7695 118.974 12.1797 118.375 12.4922C117.776 12.7917 117.145 13.0195 116.48 13.1758C115.829 13.332 115.165 13.4102 114.488 13.4102Z" fill="url(#paint2_linear_2_63)"/>
<path d="M102.145 1.4375C102.809 1.45052 103.401 1.65885 103.922 2.0625C104.443 2.46615 104.859 2.94792 105.172 3.50781C105.497 4.06771 105.738 4.66016 105.895 5.28516C106.051 5.91016 106.129 6.54818 106.129 7.19922C106.129 8.05859 105.992 8.90495 105.719 9.73828C105.458 10.5586 105.022 11.2878 104.41 11.9258C103.811 12.5638 103.056 12.9089 102.145 12.9609H95.3281C94.4167 12.9219 93.6549 12.5833 93.043 11.9453C92.431 11.3073 91.9948 10.5716 91.7344 9.73828C91.487 8.90495 91.3633 8.05859 91.3633 7.19922C91.3633 6.33984 91.4935 5.5 91.7539 4.67969C92.0143 3.84635 92.444 3.11068 93.043 2.47266C93.6549 1.82161 94.4167 1.47656 95.3281 1.4375H95.6992H101.773H102.145ZM101.48 10.3438C101.975 10.3177 102.385 10.1354 102.711 9.79688C103.049 9.44531 103.29 9.04167 103.434 8.58594C103.577 8.13021 103.648 7.66797 103.648 7.19922C103.648 6.73047 103.57 6.27474 103.414 5.83203C103.271 5.3763 103.036 4.97266 102.711 4.62109C102.385 4.26953 101.975 4.08073 101.48 4.05469H95.9336C95.4388 4.08073 95.0286 4.26953 94.7031 4.62109C94.3776 4.97266 94.1367 5.3763 93.9805 5.83203C93.8372 6.27474 93.7656 6.73047 93.7656 7.19922C93.7656 7.66797 93.8372 8.13021 93.9805 8.58594C94.1237 9.04167 94.3581 9.44531 94.6836 9.79688C95.0221 10.1354 95.4388 10.3177 95.9336 10.3438H101.48Z" fill="url(#paint3_linear_2_63)"/>
<path d="M78.3945 11.9648C78.3164 12.7461 77.8867 13.1693 77.1055 13.2344C76.7409 13.2344 76.4219 13.1172 76.1484 12.8828C75.888 12.6354 75.7578 12.3294 75.7578 11.9648V2.70703C75.7708 2.34245 75.9076 2.04297 76.168 1.80859C76.4284 1.5612 76.7409 1.4375 77.1055 1.4375H78.0625H80.4648H85.2891C85.3672 1.4375 85.4453 1.44401 85.5234 1.45703H85.6406C86.5521 1.48307 87.3008 1.69141 87.8867 2.08203C88.4727 2.47266 88.8958 2.92188 89.1562 3.42969C89.4167 3.92448 89.5469 4.42578 89.5469 4.93359C89.5469 5.45443 89.4167 5.96875 89.1562 6.47656C88.9089 6.97135 88.4857 7.41406 87.8867 7.80469C87.3008 8.19531 86.5521 8.40365 85.6406 8.42969H82.2031C82.3073 9.08073 82.5221 9.5625 82.8477 9.875C83.1602 10.1875 83.5573 10.3438 84.0391 10.3438H88.2578C88.6224 10.3568 88.9219 10.4935 89.1562 10.7539C89.4036 11.0143 89.5273 11.3268 89.5273 11.6914C89.5143 12.043 89.3841 12.3424 89.1367 12.5898C88.9023 12.8242 88.6094 12.9479 88.2578 12.9609H83.6875C82.724 12.974 81.8516 12.5964 81.0703 11.8281C80.2891 11.0599 79.8138 10.1484 79.6445 9.09375C79.4102 7.92188 79.293 7.26432 79.293 7.12109C79.293 6.75651 79.4167 6.45052 79.6641 6.20312C79.9245 5.94271 80.237 5.8125 80.6016 5.8125H85.7578C86.0052 5.79948 86.207 5.7474 86.3633 5.65625C86.5326 5.55208 86.6562 5.44141 86.7344 5.32422C86.8125 5.19401 86.8516 5.0638 86.8516 4.93359C86.8516 4.80339 86.8125 4.67969 86.7344 4.5625C86.6562 4.43229 86.5326 4.32161 86.3633 4.23047C86.207 4.1263 86.0052 4.06771 85.7578 4.05469H80.4648H78.9023C78.5638 4.06771 78.3945 4.23698 78.3945 4.5625V11.9648Z" fill="url(#paint4_linear_2_63)"/>
<path d="M63.7461 1.4375H71.9883C72.3529 1.45052 72.6523 1.58724 72.8867 1.84766C73.1341 2.10807 73.2578 2.42057 73.2578 2.78516C73.1927 3.56641 72.7695 3.98958 71.9883 4.05469H64.4102C63.9154 4.08073 63.5052 4.26953 63.1797 4.62109C62.8542 4.97266 62.6133 5.3763 62.457 5.83203C62.3138 6.27474 62.2422 6.73047 62.2422 7.19922C62.2422 7.66797 62.3138 8.13021 62.457 8.58594C62.6133 9.02865 62.8542 9.42578 63.1797 9.77734C63.5052 10.1289 63.9154 10.3177 64.4102 10.3438H70.3477C70.582 10.3307 70.7057 10.2005 70.7188 9.95312V8.82031C70.7057 8.5599 70.582 8.42969 70.3477 8.42969H65.3477C64.9831 8.42969 64.6706 8.30599 64.4102 8.05859C64.1628 7.79818 64.0391 7.48568 64.0391 7.12109C64.0391 6.75651 64.1628 6.44401 64.4102 6.18359C64.6706 5.9362 64.9831 5.8125 65.3477 5.8125H72.0273C72.3919 5.8125 72.7044 5.9362 72.9648 6.18359C73.1992 6.43099 73.3229 6.73047 73.3359 7.08203V7.12109V11.6914C73.3229 12.043 73.1992 12.3359 72.9648 12.5703C72.7174 12.8177 72.418 12.9479 72.0664 12.9609H63.7461C62.8346 12.9089 62.0794 12.5638 61.4805 11.9258C60.8945 11.2747 60.4714 10.5391 60.2109 9.71875C59.9635 8.89844 59.8398 8.05859 59.8398 7.19922C59.8398 6.33984 59.9701 5.5 60.2305 4.67969C60.4909 3.85938 60.9141 3.13021 61.5 2.49219C62.0859 1.84115 62.8346 1.48958 63.7461 1.4375Z" fill="url(#paint5_linear_2_63)"/>
<path d="M46.0508 1.125C46.4154 1.125 46.7279 1.2487 46.9883 1.49609C47.2487 1.73047 47.3854 2.02995 47.3984 2.39453V2.76562C47.3854 3.29948 47.418 3.79427 47.4961 4.25C47.5872 4.69271 47.7956 5.08984 48.1211 5.44141C48.4466 5.79297 48.8568 5.98177 49.3516 6.00781H54.8398V2.43359C54.8398 2.06901 54.9701 1.76953 55.2305 1.53516C55.5039 1.28776 55.8229 1.16406 56.1875 1.16406C56.9688 1.22917 57.3984 1.65234 57.4766 2.43359V6.96484C57.4766 8.00651 57.3333 8.98958 57.0469 9.91406C56.7865 10.7344 56.3568 11.431 55.7578 12.0039C55.1719 12.5638 54.4232 12.8698 53.5117 12.9219H46.4805C46.1289 12.9089 45.8294 12.7852 45.582 12.5508C45.3477 12.3034 45.224 12.0039 45.2109 11.6523C45.2109 11.2878 45.3281 10.9753 45.5625 10.7148C45.8099 10.4544 46.1159 10.3177 46.4805 10.3047H52.8477C53.3424 10.2786 53.7526 10.0898 54.0781 9.73828C54.3776 9.41276 54.5794 9.04167 54.6836 8.625H48.6875C47.776 8.57292 47.0208 8.26693 46.4219 7.70703C45.8359 7.13411 45.4128 6.4375 45.1523 5.61719C44.9049 4.79688 44.7747 3.92448 44.7617 3V2.39453C44.7747 2.04297 44.9049 1.75 45.1523 1.51562C45.3997 1.26823 45.6992 1.13802 46.0508 1.125Z" fill="url(#paint6_linear_2_63)"/>
<path d="M34.4883 9.93359C34.4883 9.56901 34.612 9.26302 34.8594 9.01562C35.1198 8.75521 35.4323 8.625 35.7969 8.625H38.7852L38.2773 7.17969C38.069 6.64583 37.8607 6.14453 37.6523 5.67578C37.457 5.19401 37.2292 4.75781 36.9688 4.36719C36.7344 3.97656 36.4674 3.76823 36.168 3.74219C35.8555 3.76823 35.5755 3.97656 35.3281 4.36719C35.0807 4.75781 34.8529 5.19401 34.6445 5.67578C34.4492 6.14453 34.2474 6.64583 34.0391 7.17969L32.1836 12.2578C32.0534 12.5312 31.8841 12.7591 31.6758 12.9414C31.4805 13.1107 31.181 13.1953 30.7773 13.1953C30.3997 13.1953 30.0872 13.0651 29.8398 12.8047C29.6055 12.5443 29.5013 12.2318 29.5273 11.8672C29.5404 11.6979 29.5794 11.5417 29.6445 11.3984L31.793 5.85156C32.3919 4.39323 32.9909 3.21484 33.5898 2.31641C34.1758 1.43099 35.0352 0.981771 36.168 0.96875C37.2878 0.981771 38.1406 1.43099 38.7266 2.31641C39.3255 3.1888 39.9245 4.36719 40.5234 5.85156L42.6719 11.3984C42.737 11.5417 42.776 11.6979 42.7891 11.8672C42.8151 12.2318 42.7044 12.5443 42.457 12.8047C42.2227 13.0651 41.9167 13.1953 41.5391 13.1953C41.1094 13.1953 40.7904 13.1107 40.582 12.9414C40.3867 12.7591 40.224 12.5312 40.0938 12.2578L39.7227 11.2422H35.7969C35.4323 11.2422 35.1263 11.112 34.8789 10.8516C34.6185 10.6042 34.4883 10.2982 34.4883 9.93359Z" fill="url(#paint7_linear_2_63)"/>
<path d="M17.418 1.125C17.7826 1.125 18.0951 1.2487 18.3555 1.49609C18.6159 1.73047 18.7526 2.02995 18.7656 2.39453V7.10156C18.7526 7.63542 18.7852 8.13021 18.8633 8.58594C18.9544 9.02865 19.1628 9.42578 19.4883 9.77734C19.8138 10.1289 20.224 10.3177 20.7188 10.3438H26.9688C27.3333 10.3568 27.6328 10.4935 27.8672 10.7539C28.1146 11.0143 28.2383 11.3268 28.2383 11.6914C28.2253 12.043 28.0951 12.3424 27.8477 12.5898C27.6133 12.8242 27.3203 12.9479 26.9688 12.9609H20.0547C19.1432 12.9089 18.388 12.6029 17.7891 12.043C17.2031 11.4701 16.7799 10.7734 16.5195 9.95312C16.2721 9.13281 16.1419 8.26042 16.1289 7.33594V2.39453C16.1419 2.04297 16.2721 1.75 16.5195 1.51562C16.7669 1.26823 17.0664 1.13802 17.418 1.125Z" fill="url(#paint8_linear_2_63)"/>
<path d="M11.4023 11.9258C11.4805 12.707 11.9102 13.1302 12.6914 13.1953C13.056 13.1953 13.375 13.0781 13.6484 12.8438C13.9089 12.5964 14.0391 12.2904 14.0391 11.9258V2.70703C14.026 2.34245 13.8893 2.04297 13.6289 1.80859C13.3685 1.5612 13.056 1.4375 12.6914 1.4375H4.48828C3.34245 1.47656 2.47656 1.73047 1.89062 2.19922C1.30469 2.65495 0.88151 3.17578 0.621094 3.76172C0.360677 4.34766 0.230469 4.9401 0.230469 5.53906C0.230469 6.16406 0.360677 6.76953 0.621094 7.35547C0.86849 7.94141 1.29167 8.46875 1.89062 8.9375C2.47656 9.39323 3.22526 9.61458 4.13672 9.60156H9.05859C9.42318 9.60156 9.72917 9.47135 9.97656 9.21094C10.237 8.96354 10.3672 8.65755 10.3672 8.29297C10.3672 7.92839 10.2435 7.6224 9.99609 7.375C9.73568 7.11458 9.42318 6.98438 9.05859 6.98438H4.01953C3.77214 6.98438 3.57031 6.90625 3.41406 6.75C3.24479 6.58073 3.12109 6.39193 3.04297 6.18359C2.96484 5.96224 2.92578 5.74089 2.92578 5.51953C2.92578 5.3112 2.96484 5.10286 3.04297 4.89453C3.12109 4.67318 3.24479 4.48438 3.41406 4.32812C3.57031 4.15885 3.77214 4.06771 4.01953 4.05469H10.8945C11.2331 4.06771 11.4023 4.23698 11.4023 4.5625V11.9258Z" fill="url(#paint9_linear_2_63)"/>
<defs>
<linearGradient id="paint0_linear_2_63" x1="75.5" y1="-4" x2="75.5" y2="16" gradientUnits="userSpaceOnUse">
<stop stop-color="#FF0000"/>
<stop offset="1" stop-color="#FF6200"/>
</linearGradient>
<linearGradient id="paint1_linear_2_63" x1="75.5" y1="-4" x2="75.5" y2="16" gradientUnits="userSpaceOnUse">
<stop stop-color="#FF0000"/>
<stop offset="1" stop-color="#FF6200"/>
</linearGradient>
<linearGradient id="paint2_linear_2_63" x1="75.5" y1="-4" x2="75.5" y2="16" gradientUnits="userSpaceOnUse">
<stop stop-color="#FF0000"/>
<stop offset="1" stop-color="#FF6200"/>
</linearGradient>
<linearGradient id="paint3_linear_2_63" x1="75.5" y1="-4" x2="75.5" y2="16" gradientUnits="userSpaceOnUse">
<stop stop-color="#FF0000"/>
<stop offset="1" stop-color="#FF6200"/>
</linearGradient>
<linearGradient id="paint4_linear_2_63" x1="75.5" y1="-4" x2="75.5" y2="16" gradientUnits="userSpaceOnUse">
<stop stop-color="#FF0000"/>
<stop offset="1" stop-color="#FF6200"/>
</linearGradient>
<linearGradient id="paint5_linear_2_63" x1="75.5" y1="-4" x2="75.5" y2="16" gradientUnits="userSpaceOnUse">
<stop stop-color="#FF0000"/>
<stop offset="1" stop-color="#FF6200"/>
</linearGradient>
<linearGradient id="paint6_linear_2_63" x1="75.5" y1="-4" x2="75.5" y2="16" gradientUnits="userSpaceOnUse">
<stop stop-color="#FF0000"/>
<stop offset="1" stop-color="#FF6200"/>
</linearGradient>
<linearGradient id="paint7_linear_2_63" x1="75.5" y1="-4" x2="75.5" y2="16" gradientUnits="userSpaceOnUse">
<stop stop-color="#FF0000"/>
<stop offset="1" stop-color="#FF6200"/>
</linearGradient>
<linearGradient id="paint8_linear_2_63" x1="75.5" y1="-4" x2="75.5" y2="16" gradientUnits="userSpaceOnUse">
<stop stop-color="#FF0000"/>
<stop offset="1" stop-color="#FF6200"/>
</linearGradient>
<linearGradient id="paint9_linear_2_63" x1="-61.2305" y1="-4" x2="-61.2305" y2="16" gradientUnits="userSpaceOnUse">
<stop stop-color="#FF0000"/>
<stop offset="1" stop-color="#FF6200"/>
</linearGradient>
</defs>
</svg>
