<svg width="164" height="16" viewBox="0 0 164 16" fill="none" xmlns="http://www.w3.org/2000/svg">
<path d="M145.833 1H156.353C158.26 1 159.907 1.68 161.293 3.04C162.667 4.41333 163.353 6.06 163.353 7.98C163.353 9.92667 162.667 11.5867 161.293 12.96C159.92 14.32 158.273 15 156.353 15H145.833V1ZM154.033 13.84C154.793 13.84 155.34 13.5933 155.673 13.1C155.993 12.62 156.193 11.94 156.273 11.06C156.34 10.4867 156.373 9.46 156.373 7.98C156.373 6.83333 156.333 5.74 156.253 4.7C156.173 3.91333 155.973 3.31333 155.653 2.9C155.32 2.40667 154.78 2.16 154.033 2.16H152.833V13.84H154.033Z" fill="url(#paint0_linear_2_75)"/>
<path d="M131.79 1H137.67L143.51 8V1H144.71V15H140.01L133.01 5.68V15H131.79V1Z" fill="url(#paint1_linear_2_75)"/>
<path d="M123.96 15.1C121.546 15.1 119.82 14.7467 118.78 14.04C117.753 13.3333 117.24 12.2533 117.24 10.8V1H124.88V10.8C124.88 11.7467 125.086 12.44 125.5 12.88C125.926 13.3067 126.486 13.52 127.18 13.52C128.726 13.52 129.5 12.6133 129.5 10.8V1H130.68V10.8C130.68 11.9333 130.44 12.8133 129.96 13.44C129.48 14.0533 128.76 14.4867 127.8 14.74C126.84 14.98 125.56 15.1 123.96 15.1Z" fill="url(#paint2_linear_2_75)"/>
<path d="M106.658 15.1C104.872 15.1 103.258 14.8267 101.818 14.28C100.378 13.7333 99.2383 12.9267 98.3983 11.86C97.5716 10.78 97.1583 9.48667 97.1583 7.98001C97.1583 6.48667 97.5783 5.20667 98.4183 4.14001C99.2583 3.07334 100.392 2.26667 101.818 1.72001C103.258 1.16001 104.872 0.880005 106.658 0.880005C108.432 0.880005 110.032 1.16001 111.458 1.72001C112.898 2.26667 114.032 3.07334 114.858 4.14001C115.698 5.20667 116.118 6.48667 116.118 7.98001C116.118 9.48667 115.698 10.78 114.858 11.86C114.032 12.9267 112.898 13.7333 111.458 14.28C110.032 14.8267 108.432 15.1 106.658 15.1ZM106.658 13.92C107.218 13.92 107.632 13.6667 107.898 13.16C108.125 12.7733 108.278 12.0867 108.358 11.1C108.398 10.58 108.418 9.54001 108.418 7.98001C108.418 6.40667 108.385 5.29334 108.318 4.64001C108.278 3.84001 108.132 3.23334 107.878 2.82001C107.612 2.31334 107.205 2.06001 106.658 2.06001C106.098 2.06001 105.678 2.31334 105.398 2.82001C105.172 3.22001 105.025 3.82667 104.958 4.64001C104.905 5.33334 104.878 6.44667 104.878 7.98001C104.878 9.71334 104.898 10.7533 104.938 11.1C104.992 12.02 105.138 12.7067 105.378 13.16C105.658 13.6667 106.085 13.92 106.658 13.92Z" fill="url(#paint3_linear_2_75)"/>
<path d="M79.5834 1H92.9634C93.6168 1 94.2168 1.16667 94.7634 1.5C95.3234 1.82 95.7634 2.26 96.0834 2.82C96.4168 3.36667 96.5834 3.96667 96.5834 4.62C96.5834 5.48667 96.3168 6.27333 95.7834 6.98C95.2501 7.68667 94.5768 8.14 93.7634 8.34C94.4834 8.54 95.0701 8.92 95.5234 9.48C95.9901 10.04 96.2234 10.6733 96.2234 11.38V15H89.5234V10.66C89.5234 10.2333 89.4434 9.9 89.2834 9.66C89.0968 9.38 88.8834 9.17333 88.6434 9.04C88.3768 8.89333 88.0768 8.78667 87.7434 8.72C87.3968 8.65333 87.0701 8.61333 86.7634 8.6L86.2234 8.58V15H79.5834V1ZM86.9234 7.42C87.4034 7.42 87.8434 7.30667 88.2434 7.08C88.6568 6.84 88.9768 6.52 89.2034 6.12C89.4434 5.70667 89.5634 5.26667 89.5634 4.8C89.5634 4.32 89.4434 3.88 89.2034 3.48C88.9768 3.06667 88.6568 2.74 88.2434 2.5C87.8434 2.26 87.4034 2.14 86.9234 2.14H86.2234V7.44L86.9234 7.42Z" fill="url(#paint4_linear_2_75)"/>
<path d="M62.0639 7.98001C62.0639 5.62001 62.6439 3.86667 63.8039 2.72001C64.5506 1.97334 65.3839 1.48001 66.3039 1.24001C67.2239 1.00001 68.4306 0.880005 69.9239 0.880005C71.3106 0.880005 72.4239 0.980005 73.2639 1.18001C74.1172 1.36667 74.8172 1.77334 75.3639 2.4C75.8172 2.92 76.1706 3.55334 76.4239 4.3C76.6906 5.03334 76.8439 5.75334 76.8839 6.46001H75.7439C75.6906 5.86001 75.5439 5.24667 75.3039 4.62C75.0772 3.98 74.7172 3.43334 74.2239 2.98001C73.7306 2.51334 73.1039 2.28 72.3439 2.28C71.6372 2.28 71.0506 2.59334 70.5839 3.22001C70.1839 3.76667 69.8972 4.49334 69.7239 5.40001C69.5639 6.20001 69.4839 7.06001 69.4839 7.98001C69.4839 9.48667 69.6706 10.7467 70.0439 11.76C70.5372 13.0533 71.3039 13.7 72.3439 13.7V8.16001H78.4639V15C76.5439 15 74.3706 15.0267 71.9439 15.08L69.9239 15.1C68.4572 15.1 67.2639 14.96 66.3439 14.68C65.4372 14.3867 64.6572 13.9133 64.0039 13.26C62.7106 11.9667 62.0639 10.2067 62.0639 7.98001Z" fill="url(#paint5_linear_2_75)"/>
<path d="M52.0452 8.58L47.7052 1H55.5452L58.4252 6.72L61.2252 1H62.7652L59.0452 8.58V15H52.0452V8.58Z" fill="url(#paint6_linear_2_75)"/>
<path d="M38.8627 1H44.7027L50.9027 15H43.3427L41.2427 10.36H36.8427L35.0427 15H33.5827L38.8627 1ZM40.6827 9.14L38.8627 5.08L37.2827 9.14H40.6827Z" fill="url(#paint7_linear_2_75)"/>
<path d="M18.1577 1H25.1777V13.8H32.7777V15H18.1577V1Z" fill="url(#paint8_linear_2_75)"/>
<path d="M17.18 1H4.48C3.30667 1 2.36 1.34 1.64 2.02C0.919999 2.68667 0.559999 3.59333 0.559999 4.74C0.559999 5.42 0.726666 6.05333 1.06 6.64C1.39333 7.22667 1.85333 7.69333 2.44 8.04C3.02667 8.38667 3.69333 8.56 4.44 8.56L10.54 8.58V15H17.18V1ZM9.84 7.42C9.36 7.42 8.92 7.30667 8.52 7.08C8.10667 6.84 7.78667 6.52 7.56 6.12C7.32 5.70667 7.2 5.26667 7.2 4.8C7.2 4.32 7.32 3.88 7.56 3.48C7.78667 3.06667 8.10667 2.74 8.52 2.5C8.92 2.26 9.36 2.14 9.84 2.14H10.54V7.42H9.84Z" fill="url(#paint9_linear_2_75)"/>
<defs>
<linearGradient id="paint0_linear_2_75" x1="82" y1="-8" x2="82" y2="18" gradientUnits="userSpaceOnUse">
<stop stop-color="#FF0000"/>
<stop offset="1" stop-color="#FF6200"/>
</linearGradient>
<linearGradient id="paint1_linear_2_75" x1="82" y1="-8" x2="82" y2="18" gradientUnits="userSpaceOnUse">
<stop stop-color="#FF0000"/>
<stop offset="1" stop-color="#FF6200"/>
</linearGradient>
<linearGradient id="paint2_linear_2_75" x1="82" y1="-8" x2="82" y2="18" gradientUnits="userSpaceOnUse">
<stop stop-color="#FF0000"/>
<stop offset="1" stop-color="#FF6200"/>
</linearGradient>
<linearGradient id="paint3_linear_2_75" x1="82" y1="-8" x2="82" y2="18" gradientUnits="userSpaceOnUse">
<stop stop-color="#FF0000"/>
<stop offset="1" stop-color="#FF6200"/>
</linearGradient>
<linearGradient id="paint4_linear_2_75" x1="82" y1="-8" x2="82" y2="18" gradientUnits="userSpaceOnUse">
<stop stop-color="#FF0000"/>
<stop offset="1" stop-color="#FF6200"/>
</linearGradient>
<linearGradient id="paint5_linear_2_75" x1="82" y1="-8" x2="82" y2="18" gradientUnits="userSpaceOnUse">
<stop stop-color="#FF0000"/>
<stop offset="1" stop-color="#FF6200"/>
</linearGradient>
<linearGradient id="paint6_linear_2_75" x1="82" y1="-8" x2="82" y2="18" gradientUnits="userSpaceOnUse">
<stop stop-color="#FF0000"/>
<stop offset="1" stop-color="#FF6200"/>
</linearGradient>
<linearGradient id="paint7_linear_2_75" x1="82" y1="-8" x2="82" y2="18" gradientUnits="userSpaceOnUse">
<stop stop-color="#FF0000"/>
<stop offset="1" stop-color="#FF6200"/>
</linearGradient>
<linearGradient id="paint8_linear_2_75" x1="82" y1="-8" x2="82" y2="18" gradientUnits="userSpaceOnUse">
<stop stop-color="#FF0000"/>
<stop offset="1" stop-color="#FF6200"/>
</linearGradient>
<linearGradient id="paint9_linear_2_75" x1="-64.26" y1="-8" x2="-64.26" y2="18" gradientUnits="userSpaceOnUse">
<stop stop-color="#FF0000"/>
<stop offset="1" stop-color="#FF6200"/>
</linearGradient>
</defs>
</svg>
