<svg width="96" height="19" viewBox="0 0 96 19" fill="none" xmlns="http://www.w3.org/2000/svg">
<path d="M0 12V0.199999H0.6V12H0ZM1.2 12V0.199999H3V12H1.2ZM3.6 12V0.199999H5.4V12H3.6ZM6 12V0.199999H6.6V12H6ZM8.4 12V0.199999H9V12H8.4ZM3.38 13.74H4.86C5.35333 13.74 5.72 13.8667 5.96 14.12C6.21333 14.36 6.34 14.6733 6.34 15.06C6.34 15.4333 6.22 15.74 5.98 15.98C5.74 16.22 5.38 16.34 4.9 16.34H3.92V18.38H3.38V13.74ZM4.84 15.88C5.17333 15.88 5.41333 15.8067 5.56 15.66C5.72 15.5267 5.8 15.3333 5.8 15.08C5.8 14.8267 5.72 14.6267 5.56 14.48C5.4 14.32 5.16667 14.24 4.86 14.24H3.92V15.88H4.84ZM9.60938 12V0.199999H10.2094V12H9.60938ZM10.8094 12V0.199999H12.6094V12H10.8094ZM13.2094 12V0.199999H13.8094V12H13.2094ZM14.4094 12V0.199999H15.0094V12H14.4094ZM16.8094 12V0.199999H18.6094V12H16.8094ZM13.0494 13.74H13.6494V13.8C13.6227 13.8267 13.6027 13.86 13.5894 13.9C13.5894 13.9267 13.5894 13.9867 13.5894 14.08V17.94H15.8094V18.38H13.0494V13.74ZM19.2188 12V0.199999H21.0188V12H19.2188ZM21.6188 12V0.199999H22.2188V12H21.6188ZM22.8188 12V0.199999H23.4188V12H22.8188ZM25.2188 12V0.199999H25.8188V12H25.2188ZM26.4188 12V0.199999H28.2188V12H26.4188ZM24.7588 17.02H23.2588L22.7988 18.38H22.2788L23.9788 13.66H24.0388L25.7588 18.38H25.2188L24.7588 17.02ZM24.6188 16.62L24.0188 14.86L23.3988 16.62H24.6188ZM28.8281 12V0.199999H30.6281V12H28.8281ZM32.4281 12V0.199999H33.0281V12H32.4281ZM33.6281 12V0.199999H35.4281V12H33.6281ZM36.0281 12V0.199999H36.6281V12H36.0281ZM37.2281 12V0.199999H37.8281V12H37.2281ZM33.4081 16.56L31.9681 13.74H32.5681L33.7081 16L34.7281 13.74H35.2881L33.9681 16.56V18.38H33.4081V16.56ZM38.4375 12V0.199999H39.0375V12H38.4375ZM39.6375 12V0.199999H40.2375V12H39.6375ZM40.8375 12V0.199999H41.4375V12H40.8375ZM43.2375 12V0.199999H45.0375V12H43.2375ZM45.6375 12V0.199999H47.4375V12H45.6375ZM43.4375 18.46C43.0642 18.46 42.7442 18.36 42.4775 18.16C42.2108 17.9733 42.0042 17.7 41.8575 17.34C41.7108 16.9933 41.6375 16.5867 41.6375 16.12C41.6375 15.5067 41.7308 15.02 41.9175 14.66C42.1042 14.3 42.3308 14.0467 42.5975 13.9C42.8642 13.7667 43.1308 13.7 43.3975 13.7C43.6775 13.7 43.9442 13.7733 44.1975 13.92C44.4642 14.0533 44.6575 14.24 44.7775 14.48L44.4175 14.76L44.3575 14.82L44.3375 14.78C44.3375 14.74 44.3308 14.7 44.3175 14.66C44.2908 14.6333 44.2508 14.5867 44.1975 14.52C44.0775 14.3867 43.9575 14.2933 43.8375 14.24C43.7175 14.1867 43.5708 14.16 43.3975 14.16C43.0375 14.16 42.7375 14.3 42.4975 14.58C42.2708 14.8733 42.1575 15.3467 42.1575 16C42.1575 16.64 42.2708 17.1333 42.4975 17.48C42.7242 17.8267 43.0375 18 43.4375 18C43.5842 18 43.7375 17.9733 43.8975 17.92C44.0708 17.88 44.2108 17.8133 44.3175 17.72V16.62H43.4775V16.16H44.7975V17.98C44.3575 18.3 43.9042 18.46 43.4375 18.46ZM48.0469 12V0.199999H49.8469V12H48.0469ZM50.4469 12V0.199999H51.0469V12H50.4469ZM51.6469 12V0.199999H52.2469V12H51.6469ZM52.8469 12V0.199999H54.6469V12H52.8469ZM56.4469 12V0.199999H57.0469V12H56.4469ZM51.4069 13.74H52.7669C53.3002 13.74 53.6869 13.86 53.9269 14.1C54.1802 14.3267 54.3069 14.6533 54.3069 15.08C54.3069 15.3467 54.2202 15.6 54.0469 15.84C53.8735 16.08 53.6469 16.24 53.3669 16.32L54.4469 18.38H53.8669L52.8269 16.34H51.9269V18.38H51.4069V13.74ZM52.8269 15.88C53.1469 15.88 53.3869 15.8067 53.5469 15.66C53.6935 15.5267 53.7669 15.3333 53.7669 15.08C53.7669 14.8267 53.6935 14.62 53.5469 14.46C53.3869 14.3133 53.1469 14.24 52.8269 14.24H51.9269V15.88H52.8269ZM57.6562 12V0.199999H59.4563V12H57.6562ZM60.0563 12V0.199999H60.6563V12H60.0563ZM61.2563 12V0.199999H63.0563V12H61.2563ZM63.6563 12V0.199999H64.2563V12H63.6563ZM66.0563 12V0.199999H66.6563V12H66.0563ZM62.4563 18.46C61.9229 18.46 61.5163 18.2533 61.2363 17.84C60.9429 17.4267 60.7963 16.84 60.7963 16.08C60.7963 15.3467 60.9429 14.7667 61.2363 14.34C61.5296 13.9267 61.9363 13.72 62.4563 13.72C62.9763 13.72 63.3829 13.9267 63.6763 14.34C63.9696 14.7667 64.1163 15.3467 64.1163 16.08C64.1163 16.84 63.9696 17.4267 63.6763 17.84C63.3963 18.2533 62.9896 18.46 62.4563 18.46ZM62.4563 18C62.8163 18 63.0896 17.84 63.2763 17.52C63.4763 17.1867 63.5763 16.7067 63.5763 16.08C63.5763 15.4933 63.4763 15.0267 63.2763 14.68C63.0763 14.3467 62.8029 14.18 62.4563 14.18C62.1096 14.18 61.8363 14.3467 61.6363 14.68C61.4363 15.0267 61.3363 15.4933 61.3363 16.08C61.3363 16.7067 61.4296 17.1867 61.6163 17.52C61.8163 17.84 62.0963 18 62.4563 18ZM67.2656 12V0.199999H69.0656V12H67.2656ZM70.8656 12V0.199999H71.4656V12H70.8656ZM72.0656 12V0.199999H72.6656V12H72.0656ZM73.2656 12V0.199999H73.8656V12H73.2656ZM74.4656 12V0.199999H76.2656V12H74.4656ZM72.0656 18.46C71.5856 18.46 71.219 18.3133 70.9656 18.02C70.7123 17.7267 70.5856 17.3133 70.5856 16.78V13.74H71.1656V13.8C71.1256 13.8267 71.1056 13.86 71.1056 13.9C71.0923 13.9267 71.0856 13.9867 71.0856 14.08V16.78C71.0856 17.18 71.1656 17.4867 71.3256 17.7C71.4723 17.9133 71.7256 18.02 72.0856 18.02C72.4323 18.02 72.6856 17.9133 72.8456 17.7C73.0056 17.4867 73.0856 17.1733 73.0856 16.76V13.74H73.5856V16.76C73.5856 17.3333 73.4523 17.76 73.1856 18.04C72.919 18.32 72.5456 18.46 72.0656 18.46ZM76.875 12V0.199999H77.475V12H76.875ZM78.075 12V0.199999H78.675V12H78.075ZM79.275 12V0.199999H81.075V12H79.275ZM81.675 12V0.199999H82.275V12H81.675ZM84.075 12V0.199999H85.875V12H84.075ZM80.195 13.74H80.695L82.635 17.18V13.74H83.215V13.8C83.175 13.8267 83.155 13.86 83.155 13.9C83.1417 13.9267 83.135 13.9867 83.135 14.08V18.38H82.735L80.675 14.74V18.38H80.195V13.74ZM86.4844 12V0.199999H87.0844V12H86.4844ZM87.6844 12V0.199999H88.2844V12H87.6844ZM88.8844 12V0.199999H90.6844V12H88.8844ZM92.4844 12V0.199999H93.0844V12H92.4844ZM93.6844 12V0.199999H95.4844V12H93.6844ZM89.8244 13.74H90.9044C91.291 13.74 91.591 13.7933 91.8044 13.9C92.031 14.0067 92.2244 14.1667 92.3844 14.38C92.691 14.78 92.8444 15.3467 92.8444 16.08C92.8177 16.84 92.6444 17.4133 92.3244 17.8C92.0044 18.2 91.5044 18.3933 90.8244 18.38H89.8244V13.74ZM90.7844 17.98C91.811 17.98 92.3244 17.36 92.3244 16.12C92.3244 15.4933 92.211 15.0133 91.9844 14.68C91.7444 14.3467 91.371 14.18 90.8644 14.18H90.3244V17.98H90.7844Z" fill="url(#paint0_linear_2_46)"/>
<defs>
<linearGradient id="paint0_linear_2_46" x1="48.5" y1="0" x2="48.5" y2="20" gradientUnits="userSpaceOnUse">
<stop stop-color="#FF0000"/>
<stop offset="1" stop-color="#FF6200"/>
</linearGradient>
</defs>
</svg>
