<svg width="143" height="16" viewBox="0 0 143 16" fill="none" xmlns="http://www.w3.org/2000/svg">
<path d="M4.2 15H1.1C0.846667 15 0.66 14.9467 0.54 14.84C0.433333 14.72 0.38 14.5333 0.38 14.28V1.32C0.38 1.06667 0.433333 0.886666 0.54 0.779999C0.66 0.659999 0.846667 0.599999 1.1 0.599999H7.22C9.03333 0.599999 10.2733 0.96 10.94 1.68C11.6067 2.4 11.94 3.34 11.94 4.5V7.06C11.94 8.22 11.6067 9.16 10.94 9.88C10.2733 10.6 9.03333 10.96 7.22 10.96H4.92V14.28C4.92 14.5333 4.86 14.72 4.74 14.84C4.63333 14.9467 4.45333 15 4.2 15ZM6.94 9.26C7.56667 9.26 8.07333 9.19333 8.46 9.06C8.86 8.92667 9.16667 8.74667 9.38 8.52C9.59333 8.28 9.74 8 9.82 7.68C9.9 7.34667 9.94 6.98667 9.94 6.6V5.12C9.94 4.73333 9.9 4.37333 9.82 4.04C9.74 3.70667 9.59333 3.42 9.38 3.18C9.16667 2.94 8.86 2.75333 8.46 2.62C8.07333 2.47333 7.56667 2.4 6.94 2.4H2.62V13.2H2.82V9.26H6.94ZM2.82 9.06V2.6H6.94C7.52667 2.6 8 2.66667 8.36 2.8C8.73333 2.92 9.02 3.09333 9.22 3.32C9.42 3.54667 9.55333 3.81333 9.62 4.12C9.7 4.42667 9.74 4.76 9.74 5.12V6.6C9.74 6.96 9.7 7.29333 9.62 7.6C9.55333 7.89333 9.42 8.15333 9.22 8.38C9.02 8.59333 8.73333 8.76 8.36 8.88C8 9 7.52667 9.06 6.94 9.06H2.82ZM4.88 4.34V7.36H6.68C7.06667 7.36 7.32 7.26 7.44 7.06C7.56 6.86 7.62 6.63333 7.62 6.38V5.32C7.62 5.06667 7.56 4.84 7.44 4.64C7.32 4.44 7.06667 4.34 6.68 4.34H4.88ZM24.9128 15H14.7328C14.4795 15 14.2928 14.9467 14.1728 14.84C14.0661 14.72 14.0128 14.5333 14.0128 14.28V1.32C14.0128 1.06667 14.0661 0.886666 14.1728 0.779999C14.2928 0.659999 14.4795 0.599999 14.7328 0.599999H17.8328C18.0861 0.599999 18.2661 0.659999 18.3728 0.779999C18.4928 0.886666 18.5528 1.06667 18.5528 1.32V11.22H21.2928V7.98C21.2928 7.72667 21.3461 7.54667 21.4528 7.44C21.5728 7.32 21.7595 7.26 22.0128 7.26H24.9128C25.1661 7.26 25.3461 7.32 25.4528 7.44C25.5728 7.54667 25.6328 7.72667 25.6328 7.98V14.28C25.6328 14.5333 25.5728 14.72 25.4528 14.84C25.3461 14.9467 25.1661 15 24.9128 15ZM16.1928 13.2H23.5528V9.06H23.3528V13H16.3928V2.4H16.1928V13.2ZM29.9391 8.94C29.9391 8.58 29.9657 8.24667 30.0191 7.94C30.0857 7.63333 30.1657 7.34667 30.2591 7.08L31.5391 3.8C31.6724 3.46667 31.8191 3.18667 31.9791 2.96C32.1391 2.72 32.4191 2.6 32.8191 2.6H34.7791C35.1524 2.6 35.4191 2.72 35.5791 2.96C35.7391 3.18667 35.8924 3.47333 36.0391 3.82L37.4191 7.08C37.5124 7.34667 37.5857 7.63333 37.6391 7.94C37.7057 8.24667 37.7391 8.58 37.7391 8.94V9.56H29.9391V8.94ZM33.1391 4.8L32.1991 7.84H35.3391L34.3991 4.8C34.3457 4.68 34.2857 4.59333 34.2191 4.54C34.1657 4.48667 34.0991 4.46 34.0191 4.46H33.5191C33.4391 4.46 33.3657 4.48667 33.2991 4.54C33.2457 4.59333 33.1924 4.68 33.1391 4.8ZM37.7391 13.2H37.9391V8.94C37.9391 8.56667 37.9057 8.22667 37.8391 7.92C37.7857 7.6 37.7057 7.29333 37.5991 7L36.2191 3.74C36.0591 3.35333 35.8857 3.03333 35.6991 2.78C35.5257 2.52667 35.2191 2.4 34.7791 2.4H32.8191C32.3657 2.4 32.0457 2.52667 31.8591 2.78C31.6724 3.03333 31.5057 3.34667 31.3591 3.72L30.0791 7C29.9724 7.29333 29.8857 7.6 29.8191 7.92C29.7657 8.22667 29.7391 8.56667 29.7391 8.94V13.2H29.9391V9.76H37.7391V13.2ZM31.9991 14.28C31.9991 14.5333 31.9391 14.72 31.8191 14.84C31.7124 14.9467 31.5324 15 31.2791 15H28.3391C28.0857 15 27.8991 14.9467 27.7791 14.84C27.6724 14.72 27.6191 14.5333 27.6191 14.28V9C27.6191 8.6 27.6791 8.14 27.7991 7.62C27.9324 7.1 28.1324 6.49333 28.3991 5.8L30.1391 1.26C30.2191 1.03333 30.3391 0.866666 30.4991 0.76C30.6724 0.653333 30.8924 0.599999 31.1591 0.599999H36.5391C36.7924 0.599999 36.9991 0.653333 37.1591 0.76C37.3324 0.866666 37.4591 1.03333 37.5391 1.26L39.2791 5.8C39.5457 6.49333 39.7391 7.1 39.8591 7.62C39.9924 8.14 40.0591 8.6 40.0591 9V14.28C40.0591 14.5333 39.9991 14.72 39.8791 14.84C39.7724 14.9467 39.5924 15 39.3391 15H36.3191C36.0524 15 35.8524 14.9467 35.7191 14.84C35.5991 14.72 35.5391 14.5333 35.5391 14.28V11.48H31.9991V14.28ZM49.3206 15H46.0806C45.8273 15 45.6406 14.9467 45.5206 14.84C45.414 14.72 45.3606 14.5333 45.3606 14.28V11.72L42.3006 7.62C41.994 7.20667 41.7873 6.84667 41.6806 6.54C41.5873 6.23333 41.5406 5.77333 41.5406 5.16V1.32C41.5406 1.06667 41.594 0.886666 41.7006 0.779999C41.8206 0.659999 42.0073 0.599999 42.2606 0.599999H45.3406C45.594 0.599999 45.774 0.659999 45.8806 0.779999C46.0006 0.886666 46.0606 1.06667 46.0606 1.32V4.6C46.0606 4.73333 46.0673 4.87333 46.0806 5.02C46.094 5.16667 46.1473 5.30667 46.2406 5.44L47.1606 6.88C47.2273 7 47.294 7.08667 47.3606 7.14C47.4406 7.19333 47.534 7.22 47.6406 7.22H47.8406C47.9473 7.22 48.034 7.19333 48.1006 7.14C48.1806 7.08667 48.254 7 48.3206 6.88L49.2406 5.44C49.334 5.30667 49.3873 5.16667 49.4006 5.02C49.414 4.87333 49.4206 4.73333 49.4206 4.6V1.32C49.4206 1.06667 49.474 0.886666 49.5806 0.779999C49.7006 0.659999 49.8873 0.599999 50.1406 0.599999H53.1206C53.374 0.599999 53.554 0.659999 53.6606 0.779999C53.7806 0.886666 53.8406 1.06667 53.8406 1.32V5.16C53.8406 5.77333 53.7873 6.23333 53.6806 6.54C53.574 6.84667 53.374 7.20667 53.0806 7.62L50.0406 11.74V14.28C50.0406 14.5333 49.9806 14.72 49.8606 14.84C49.754 14.9467 49.574 15 49.3206 15ZM47.9406 9.78C48.2473 9.78 48.514 9.71333 48.7406 9.58C48.9806 9.44667 49.2073 9.23333 49.4206 8.94L51.4206 6.24C51.5806 6.02667 51.6673 5.79333 51.6806 5.54C51.7073 5.27333 51.7206 4.99333 51.7206 4.7V2.4H51.5206V4.7C51.5206 4.98 51.5073 5.25333 51.4806 5.52C51.454 5.77333 51.374 5.98667 51.2406 6.16L49.2406 8.86C49.0406 9.11333 48.834 9.3 48.6206 9.42C48.4206 9.52667 48.194 9.58 47.9406 9.58H47.4006C47.174 9.58 46.9473 9.52667 46.7206 9.42C46.494 9.31333 46.294 9.12667 46.1206 8.86L44.1806 6.16C44.0473 5.96 43.9673 5.74 43.9406 5.5C43.914 5.24667 43.9006 4.98 43.9006 4.7V2.4H43.7006V4.7C43.7006 4.99333 43.714 5.27333 43.7406 5.54C43.7673 5.80667 43.854 6.04 44.0006 6.24L45.9406 8.94C46.154 9.23333 46.374 9.44667 46.6006 9.58C46.8406 9.71333 47.1073 9.78 47.4006 9.78H47.6006V13.2H47.8006V9.78H47.9406ZM67.1222 15H60.8222C59.1555 15 57.9155 14.6667 57.1022 14C56.3022 13.3333 55.9022 12.3067 55.9022 10.92V4.68C55.9022 3.29333 56.3022 2.26667 57.1022 1.6C57.9155 0.933333 59.1555 0.599999 60.8222 0.599999H65.8222C66.0755 0.599999 66.2555 0.659999 66.3622 0.779999C66.4822 0.886666 66.5422 1.06667 66.5422 1.32V3.74C66.5422 3.99333 66.4822 4.18 66.3622 4.3C66.2555 4.40667 66.0755 4.46 65.8222 4.46H61.6622C61.2489 4.46 60.9422 4.54667 60.7422 4.72C60.5422 4.88 60.4422 5.12667 60.4422 5.46V10.24C60.4422 10.5733 60.5155 10.82 60.6622 10.98C60.8222 11.14 61.0555 11.22 61.3622 11.22H63.3022V8.1C63.3022 7.84667 63.3555 7.66667 63.4622 7.56C63.5822 7.44 63.7689 7.38 64.0222 7.38H67.1222C67.3755 7.38 67.5555 7.44 67.6622 7.56C67.7822 7.66667 67.8422 7.84667 67.8422 8.1V14.28C67.8422 14.5333 67.7822 14.72 67.6622 14.84C67.5555 14.9467 67.3755 15 67.1222 15ZM61.6822 13.2H65.6622V9.18H65.4622V13H61.6822C60.3355 13 59.4289 12.82 58.9622 12.46C58.5089 12.1 58.2822 11.4867 58.2822 10.62V5.02C58.2822 4.14 58.4889 3.52 58.9022 3.16C59.3155 2.78667 60.1089 2.6 61.2822 2.6H64.7422V2.4H61.2822C60.0022 2.4 59.1489 2.6 58.7222 3C58.2955 3.4 58.0822 4.07333 58.0822 5.02V10.62C58.0822 11.0867 58.1289 11.4867 58.2222 11.82C58.3289 12.14 58.5155 12.4067 58.7822 12.62C59.0489 12.82 59.4155 12.9667 59.8822 13.06C60.3489 13.1533 60.9489 13.2 61.6822 13.2ZM77.0023 2.6C77.709 2.6 78.229 2.79333 78.5623 3.18C78.909 3.56667 79.0823 4.06667 79.0823 4.68V6.08C79.0823 6.81333 78.9423 7.38 78.6623 7.78C78.3823 8.18 77.829 8.38 77.0023 8.38H72.6423V2.6H77.0023ZM74.8023 4.2V6.76H76.3023C76.649 6.76 76.8823 6.67333 77.0023 6.5C77.1223 6.31333 77.1823 6.08667 77.1823 5.82V5.14C77.1823 4.87333 77.1223 4.65333 77.0023 4.48C76.8823 4.29333 76.649 4.2 76.3023 4.2H74.8023ZM72.6423 13.2V8.56H78.3023C79.0623 8.56 79.6223 8.72667 79.9823 9.06C80.3423 9.38 80.5223 9.86667 80.5223 10.52V13.2H80.7223V10.52C80.7223 9.82667 80.5223 9.3 80.1223 8.94C79.7223 8.56667 79.1157 8.38 78.3023 8.38H78.0823C78.5623 8.23333 78.8823 7.96667 79.0423 7.58C79.2023 7.18 79.2823 6.67333 79.2823 6.06V4.68C79.2823 4.02667 79.0957 3.48667 78.7223 3.06C78.349 2.62 77.7757 2.4 77.0023 2.4H72.4423V13.2H72.6423ZM74.0823 15H71.0023C70.749 15 70.5623 14.9467 70.4423 14.84C70.3357 14.72 70.2823 14.5333 70.2823 14.28V1.32C70.2823 1.06667 70.3357 0.886666 70.4423 0.779999C70.5623 0.659999 70.749 0.599999 71.0023 0.599999H77.6623C79.1557 0.599999 80.1823 0.913333 80.7423 1.54C81.3157 2.15333 81.6023 2.95333 81.6023 3.94V4.86C81.6023 5.42 81.5157 5.9 81.3423 6.3C81.1823 6.68667 80.8957 6.96667 80.4823 7.14C81.2023 7.22 81.7823 7.51333 82.2223 8.02C82.6757 8.52667 82.9023 9.2 82.9023 10.04V14.28C82.9023 14.5333 82.8423 14.72 82.7223 14.84C82.6157 14.9467 82.4357 15 82.1823 15H79.0823C78.829 15 78.6423 14.9467 78.5223 14.84C78.4157 14.72 78.3623 14.5333 78.3623 14.28V11.22C78.3623 10.9267 78.3023 10.7133 78.1823 10.58C78.0757 10.4333 77.8823 10.36 77.6023 10.36H74.8023V14.28C74.8023 14.5333 74.7423 14.72 74.6223 14.84C74.5157 14.9467 74.3357 15 74.0823 15ZM97.248 11.22C97.248 11.8333 97.1546 12.3933 96.968 12.9C96.7946 13.3933 96.4746 13.82 96.008 14.18C95.5546 14.5267 94.9213 14.8 94.108 15C93.308 15.2 92.288 15.3 91.048 15.3C89.808 15.3 88.7813 15.2 87.968 15C87.1546 14.8 86.5146 14.5267 86.048 14.18C85.5946 13.82 85.2746 13.3933 85.088 12.9C84.9146 12.3933 84.828 11.8333 84.828 11.22V4.4C84.828 3.78667 84.9146 3.23333 85.088 2.74C85.2746 2.23333 85.5946 1.8 86.048 1.44C86.5146 1.08 87.1546 0.799999 87.968 0.599999C88.7813 0.4 89.808 0.3 91.048 0.3C92.288 0.3 93.308 0.4 94.108 0.599999C94.9213 0.799999 95.5546 1.08 96.008 1.44C96.4746 1.8 96.7946 2.23333 96.968 2.74C97.1546 3.23333 97.248 3.78667 97.248 4.4V11.22ZM95.068 10.76V4.86C95.068 4.06 94.7813 3.41333 94.208 2.92C93.6346 2.41333 92.568 2.16 91.008 2.16C89.448 2.16 88.388 2.41333 87.828 2.92C87.268 3.41333 86.988 4.06 86.988 4.86V10.76C86.988 11.56 87.268 12.2133 87.828 12.72C88.388 13.2133 89.448 13.46 91.008 13.46C92.568 13.46 93.6346 13.2133 94.208 12.72C94.7813 12.2133 95.068 11.56 95.068 10.76ZM87.188 10.76V4.86C87.188 4.11333 87.4546 3.51333 87.988 3.06C88.5213 2.59333 89.528 2.36 91.008 2.36C92.488 2.36 93.5013 2.59333 94.048 3.06C94.5946 3.51333 94.868 4.11333 94.868 4.86V10.76C94.868 11.5067 94.5946 12.1133 94.048 12.58C93.5013 13.0333 92.488 13.26 91.008 13.26C89.528 13.26 88.5213 13.0333 87.988 12.58C87.4546 12.1133 87.188 11.5067 87.188 10.76ZM89.368 10.5C89.368 10.7667 89.468 10.9933 89.668 11.18C89.868 11.3533 90.328 11.44 91.048 11.44C91.768 11.44 92.228 11.3533 92.428 11.18C92.628 10.9933 92.728 10.7667 92.728 10.5V5.12C92.728 4.86667 92.628 4.65333 92.428 4.48C92.228 4.29333 91.768 4.2 91.048 4.2C90.328 4.2 89.868 4.29333 89.668 4.48C89.468 4.65333 89.368 4.86667 89.368 5.12V10.5ZM112.054 11.22C112.054 11.8333 111.961 12.3933 111.774 12.9C111.601 13.3933 111.281 13.82 110.814 14.18C110.361 14.5267 109.734 14.8 108.934 15C108.134 15.2 107.114 15.3 105.874 15.3C104.634 15.3 103.614 15.2 102.814 15C102.014 14.8 101.381 14.5267 100.914 14.18C100.461 13.82 100.141 13.3933 99.9541 12.9C99.7807 12.3933 99.6941 11.8333 99.6941 11.22V1.32C99.6941 1.06667 99.7474 0.886666 99.8541 0.779999C99.9741 0.659999 100.161 0.599999 100.414 0.599999H103.554C103.807 0.599999 103.987 0.659999 104.094 0.779999C104.214 0.886666 104.274 1.06667 104.274 1.32V10.44C104.274 10.7067 104.374 10.9333 104.574 11.12C104.774 11.2933 105.221 11.38 105.914 11.38C106.621 11.38 107.074 11.2933 107.274 11.12C107.474 10.9333 107.574 10.7067 107.574 10.44V1.32C107.574 1.06667 107.627 0.886666 107.734 0.779999C107.854 0.659999 108.041 0.599999 108.294 0.599999H111.334C111.587 0.599999 111.767 0.659999 111.874 0.779999C111.994 0.886666 112.054 1.06667 112.054 1.32V11.22ZM101.894 2.4V10.74C101.894 11.54 102.167 12.1933 102.714 12.7C103.274 13.1933 104.334 13.44 105.894 13.44C107.454 13.44 108.514 13.1933 109.074 12.7C109.634 12.1933 109.914 11.54 109.914 10.74V2.4H109.714V10.74C109.714 11.4867 109.447 12.0933 108.914 12.56C108.381 13.0133 107.374 13.24 105.894 13.24C104.414 13.24 103.407 13.0133 102.874 12.56C102.354 12.0933 102.094 11.4867 102.094 10.74V2.4H101.894ZM117.356 2.56C117.289 2.49333 117.236 2.44667 117.196 2.42C117.156 2.39333 117.109 2.38 117.056 2.38C117.003 2.38 116.949 2.4 116.896 2.44C116.843 2.48 116.816 2.54 116.816 2.62V13.2H117.016V2.66C117.016 2.64667 117.016 2.63333 117.016 2.62C117.029 2.60667 117.043 2.6 117.056 2.6C117.069 2.6 117.083 2.60667 117.096 2.62C117.123 2.63333 117.143 2.64667 117.156 2.66L124.716 11.14V13.2H124.916V2.4H124.716V10.84L117.356 2.56ZM118.436 15H115.436C115.183 15 114.996 14.9467 114.876 14.84C114.769 14.72 114.716 14.5333 114.716 14.28V1.32C114.716 1.06667 114.769 0.886666 114.876 0.779999C114.996 0.659999 115.183 0.599999 115.436 0.599999H117.516C117.769 0.599999 117.983 0.639999 118.156 0.719999C118.343 0.8 118.523 0.94 118.696 1.14L122.576 5.58V1.32C122.576 1.06667 122.629 0.886666 122.736 0.779999C122.856 0.659999 123.043 0.599999 123.296 0.599999H126.296C126.549 0.599999 126.729 0.659999 126.836 0.779999C126.956 0.886666 127.016 1.06667 127.016 1.32V14.28C127.016 14.5333 126.956 14.72 126.836 14.84C126.729 14.9467 126.549 15 126.296 15H123.296C123.043 15 122.856 14.9467 122.736 14.84C122.629 14.72 122.576 14.5333 122.576 14.28V11.82L119.156 7.68V14.28C119.156 14.5333 119.096 14.72 118.976 14.84C118.869 14.9467 118.689 15 118.436 15ZM137.235 15H130.495C130.241 15 130.055 14.9467 129.935 14.84C129.828 14.72 129.775 14.5333 129.775 14.28V1.32C129.775 1.06667 129.828 0.886666 129.935 0.779999C130.055 0.659999 130.241 0.599999 130.495 0.599999H137.235C138.901 0.599999 140.135 0.933333 140.935 1.6C141.748 2.26667 142.155 3.29333 142.155 4.68V10.92C142.155 12.3067 141.748 13.3333 140.935 14C140.135 14.6667 138.901 15 137.235 15ZM131.955 13.2H136.795C137.475 13.2 138.028 13.1333 138.455 13C138.881 12.8533 139.208 12.66 139.435 12.42C139.661 12.18 139.808 11.8933 139.875 11.56C139.955 11.2267 139.995 10.8667 139.995 10.48V5.18C139.995 4.79333 139.955 4.43333 139.875 4.1C139.795 3.75333 139.641 3.46 139.415 3.22C139.188 2.96667 138.861 2.76667 138.435 2.62C138.021 2.47333 137.475 2.4 136.795 2.4H131.955V13.2ZM136.795 2.6C137.421 2.6 137.928 2.66667 138.315 2.8C138.715 2.93333 139.021 3.11333 139.235 3.34C139.448 3.56667 139.595 3.84 139.675 4.16C139.755 4.48 139.795 4.82 139.795 5.18V10.48C139.795 10.84 139.755 11.18 139.675 11.5C139.608 11.8067 139.468 12.0733 139.255 12.3C139.041 12.5133 138.735 12.6867 138.335 12.82C137.948 12.94 137.435 13 136.795 13H132.155V2.6H136.795ZM134.315 4.42V11.22H136.695C137.015 11.22 137.248 11.14 137.395 10.98C137.555 10.82 137.635 10.5733 137.635 10.24V5.38C137.635 5.04667 137.555 4.80667 137.395 4.66C137.248 4.5 137.015 4.42 136.695 4.42H134.315Z" fill="url(#paint0_linear_2_44)"/>
<defs>
<linearGradient id="paint0_linear_2_44" x1="71.5" y1="-4" x2="71.5" y2="20" gradientUnits="userSpaceOnUse">
<stop stop-color="#FF0000"/>
<stop offset="1" stop-color="#FF6200"/>
</linearGradient>
</defs>
</svg>
