<svg width="96" height="15" viewBox="0 0 96 15" fill="none" xmlns="http://www.w3.org/2000/svg">
<path d="M0.820312 14V0.328125H2.51953V14H0.820312ZM3.49609 7.88672V6.22656H5.35156C6.64062 6.21354 7.29818 5.4974 7.32422 4.07812C7.3112 2.69792 6.64714 1.99479 5.33203 1.96875H3.49609V0.328125H5.60547C5.68359 0.328125 5.76172 0.328125 5.83984 0.328125C7.98828 0.445312 9.0625 1.69531 9.0625 4.07812C9.0625 4.79427 8.97786 5.41276 8.80859 5.93359C8.37891 7.22266 7.3112 7.8737 5.60547 7.88672H3.49609ZM10.2148 14V0.328125H11.9141V12.3203H17.5586V14H10.2148ZM18.5156 14L21.1133 2.45703H21.4258L22.0898 5.48438L20.1953 14H18.5156ZM21.6406 11.8125L22.0117 10.1523H24.1016L21.9336 0.347656H23.6328L26.7188 14H25.0195L24.5312 11.8125H21.6406ZM27.6367 0.328125H29.3945L32.4805 9.05859V14H30.7422V9.07812L27.6367 0.328125ZM32.207 5.11328L34.2188 0.328125H35.9766L33.1445 7.75H33.0078L32.207 5.11328ZM37.1484 10.25V3.76562C37.2005 2.97135 37.5326 2.21615 38.1445 1.5C38.9128 0.653646 39.8698 0.230469 41.0156 0.230469V1.91016C40.2344 1.92318 39.6354 2.26172 39.2188 2.92578C38.9844 3.30339 38.8672 3.6875 38.8672 4.07812V10.25C38.8672 11.1354 39.3229 11.7865 40.2344 12.2031C40.5469 12.3464 40.8073 12.418 41.0156 12.418V14.0977C40.2344 14.0977 39.4661 13.8242 38.7109 13.2773C37.6823 12.5221 37.1615 11.513 37.1484 10.25ZM41.9727 14.0977V12.418C42.3633 12.418 42.7865 12.1966 43.2422 11.7539C43.6849 11.2982 43.9128 10.8099 43.9258 10.2891V8.6875H41.9727V7.10547H45.6445V10.5625C45.6445 11.3568 45.2409 12.1445 44.4336 12.9258C43.6133 13.694 42.793 14.0846 41.9727 14.0977ZM41.9727 1.91016V0.230469C42.9622 0.217448 43.8477 0.634115 44.6289 1.48047C45.306 2.23568 45.6445 3.04948 45.6445 3.92188L43.9844 4.52734C43.9844 4.51432 43.9844 4.49479 43.9844 4.46875C43.9844 4.44271 43.9844 4.41667 43.9844 4.39062C43.9844 4.35156 43.9779 4.3125 43.9648 4.27344C43.9648 4.23438 43.9648 4.19531 43.9648 4.15625C43.9648 4.11719 43.9648 4.08464 43.9648 4.05859V4.01953C43.8997 3.10807 43.4701 2.46354 42.6758 2.08594C42.4284 1.98177 42.194 1.92318 41.9727 1.91016ZM47.1875 14V0.328125H48.8867V14H47.1875ZM49.8633 8.08203V6.53906H51.6406C53.0208 6.51302 53.7174 5.74479 53.7305 4.23438C53.7044 2.6849 52.9167 1.90365 51.3672 1.89062H49.8633V0.328125H51.6797C53.5677 0.393229 54.7331 1.18099 55.1758 2.69141C55.306 3.12109 55.3711 3.58984 55.3711 4.09766C55.3581 5.60807 54.9089 6.66927 54.0234 7.28125C54.7786 7.6849 55.2344 8.42057 55.3906 9.48828C55.4036 9.57943 55.4167 9.67057 55.4297 9.76172L55.7617 14H54.1602L53.8672 10.5234C53.763 9.40365 53.4766 8.6875 53.0078 8.375C52.6953 8.16667 52.2721 8.06901 51.7383 8.08203H49.8633ZM57.0312 10.1914V3.76562C57.0312 3.07552 57.3242 2.3724 57.9102 1.65625C58.6914 0.71875 59.681 0.24349 60.8789 0.230469V1.92969C60.0846 1.92969 59.4661 2.33333 59.0234 3.14062C58.8411 3.49219 58.75 3.80469 58.75 4.07812V10.1914C58.75 11.0117 59.1536 11.6497 59.9609 12.1055C60.2995 12.3008 60.599 12.3984 60.8594 12.3984V14.0977C60.1172 14.0977 59.375 13.8307 58.6328 13.2969C57.5781 12.5156 57.0443 11.4805 57.0312 10.1914ZM61.9336 14.0977V12.3984C62.3893 12.3984 62.8516 12.1966 63.3203 11.793C63.8151 11.3503 64.069 10.8164 64.082 10.1914V4.07812C64.082 3.57031 63.8737 3.08203 63.457 2.61328C63.0273 2.17057 62.5195 1.94271 61.9336 1.92969V0.230469C63.2487 0.230469 64.3034 0.796875 65.0977 1.92969C65.5534 2.58073 65.7812 3.19271 65.7812 3.76562V10.1914C65.7812 11.6367 65.1367 12.7435 63.8477 13.5117C63.1706 13.9023 62.5326 14.0977 61.9336 14.0977ZM67.2461 10.2305V0.328125H68.9648V10.2305C68.9648 11.0898 69.4141 11.7344 70.3125 12.1641C70.638 12.3203 70.9115 12.3984 71.1328 12.3984V14.0977C70.3776 14.0977 69.6224 13.8307 68.8672 13.2969C67.7995 12.5286 67.2591 11.5065 67.2461 10.2305ZM72.1094 14.0977V12.3984C72.5391 12.3984 72.9818 12.2227 73.4375 11.8711C73.9844 11.4414 74.2643 10.8945 74.2773 10.2305V0.328125H75.9766V10.2305C75.9766 11.6888 75.3255 12.7891 74.0234 13.5312C73.3594 13.9089 72.7214 14.0977 72.1094 14.0977ZM77.5195 14V3.31641H77.6758L79.2188 5.81641V14H77.5195ZM77.5195 1.42188V0.328125H78.9844L86.2109 11.9102V14H85.3711L77.5195 1.42188ZM84.5117 7.47656V0.328125H86.2109V9.97656H86.0547L84.5117 7.47656ZM87.832 14V0.328125H89.5312V14H87.832ZM90.5078 14V12.3203C91.8359 12.3203 92.7279 12.112 93.1836 11.6953C93.5742 11.3307 93.7695 10.8164 93.7695 10.1523V4.17578C93.7695 3.02995 93.112 2.33984 91.7969 2.10547C91.4323 2.04036 91.0026 2.00781 90.5078 2.00781V0.328125C92.8255 0.328125 94.3424 1.00521 95.0586 2.35938C95.3451 2.88021 95.4883 3.48568 95.4883 4.17578V10.1523C95.4883 12.6003 93.9974 13.8828 91.0156 14C90.8464 14 90.6771 14 90.5078 14Z" fill="url(#paint0_linear_2_39)"/>
<defs>
<linearGradient id="paint0_linear_2_39" x1="48.5" y1="-7" x2="48.5" y2="23" gradientUnits="userSpaceOnUse">
<stop stop-color="#FF0000"/>
<stop offset="1" stop-color="#FF6200"/>
</linearGradient>
</defs>
</svg>
