<svg width="115" height="14" viewBox="0 0 115 14" fill="none" xmlns="http://www.w3.org/2000/svg">
<path d="M0.2 13.24V2.12H2V0.34H7.8V2.12H9.62V7.9H7.8V9.68H2.4V13.24H0.2ZM2.4 7.42H7.4V2.6H2.4V7.42ZM13.8359 13.24V11.46H12.0359V0.34H14.2359V11H19.2359V9.2H21.4559V11.46H19.6359V13.24H13.8359ZM23.8719 13.24V3.88H25.6719V2.12H27.4719V0.34H29.6719V2.12H31.4719V3.88H33.2919V13.24H31.0719V9.68H26.0719V13.24H23.8719ZM26.0719 7.42H31.0719V4.36H29.2919V2.6H27.8519V4.36H26.0719V7.42ZM38.3117 13.24V6.12H36.5117V4.36H34.7117V0.34H36.9117V3.88H38.6917V5.68H40.1317V3.88H41.9117V0.34H44.1317V4.36H42.3117V6.12H40.5117V13.24H38.3117ZM47.957 13.24V11.46H46.157V2.12H47.957V0.34H53.757V2.12H55.577V6.12H53.357V2.6H48.357V11H53.357V9.68H51.577V7.9H49.757V5.68H51.957V7.42H55.577V11.46H53.757V13.24H47.957ZM57.993 13.24V2.12H59.793V0.34H65.593V2.12H67.413V7.9H65.593V9.68H64.713V11H66.493V13.24H64.313V11.46H62.493V9.68H60.193V13.24H57.993ZM60.193 7.42H65.193V2.6H60.193V7.42ZM71.6289 13.24V11.46H69.8289V2.12H71.6289V0.34H77.4289V2.12H79.2489V11.46H77.4289V13.24H71.6289ZM72.0289 11H77.0289V2.6H72.0289V11ZM83.4648 13.24V11.46H81.6648V0.34H83.8648V11H88.8648V0.34H91.0848V11.46H89.2648V13.24H83.4648ZM93.5008 13.24V0.34H95.7008V2.12H97.4808V3.88H99.3008V9.2H100.701V0.34H102.921V13.24H100.701V11.46H98.9208V9.68H97.1008V4.36H95.7008V13.24H93.5008ZM105.337 13.24V0.34H111.137V2.12H112.937V3.88H114.757V9.68H112.937V11.46H111.137V13.24H105.337ZM107.537 11H110.757V9.2H112.537V4.36H110.757V2.6H107.537V11Z" fill="url(#paint0_linear_2_37)"/>
<defs>
<linearGradient id="paint0_linear_2_37" x1="57.5" y1="-5" x2="57.5" y2="19" gradientUnits="userSpaceOnUse">
<stop stop-color="#FF0000"/>
<stop offset="1" stop-color="#FF6200"/>
</linearGradient>
</defs>
</svg>
