<svg width="198" height="18" viewBox="0 0 198 18" fill="none" xmlns="http://www.w3.org/2000/svg">
<path d="M0 17.5V0H15V2.5H17.5V10H15V12.5H5V17.5H0ZM5 10H12.5V2.5H5V10ZM22.5 17.5V0H27.5V15H37.5V17.5H22.5ZM40 17.5V5H42.5V2.5H45V0H52.5V2.5H55V5H57.5V17.5H52.5V12.5H45V17.5H40ZM45 10H52.5V5H50V2.5H47.5V5H45V10ZM67.5 17.5V10H65V7.5H62.5V0H67.5V7.5H72.5V0H77.5V7.5H75V10H72.5V17.5H67.5ZM85 17.5V15H82.5V12.5H80V5H82.5V2.5H85V0H97.5V2.5H87.5V5H85V12.5H87.5V15H92.5V10H90V7.5H97.5V17.5H85ZM100 17.5V0H115V2.5H117.5V10H112.5V12.5H115V15H117.5V17.5H110V15H107.5V12.5H105V17.5H100ZM105 10H110V7.5H112.5V2.5H105V10ZM122.5 17.5V15H120V2.5H122.5V0H135V2.5H137.5V15H135V17.5H122.5ZM125 15H132.5V2.5H125V15ZM142.5 17.5V15H140V0H145V15H152.5V0H157.5V15H155V17.5H142.5ZM160 17.5V0H165V2.5H167.5V5H170V7.5H172.5V0H177.5V17.5H172.5V12.5H170V10H167.5V7.5H165V17.5H160ZM180 17.5V0H192.5V2.5H195V5H197.5V12.5H195V15H192.5V17.5H180ZM185 15H190V12.5H192.5V5H190V2.5H185V15Z" fill="url(#paint0_linear_2_40)"/>
<defs>
<linearGradient id="paint0_linear_2_40" x1="100" y1="0" x2="100" y2="20" gradientUnits="userSpaceOnUse">
<stop stop-color="#FF0000"/>
<stop offset="1" stop-color="#FF6200"/>
</linearGradient>
</defs>
</svg>
