<svg width="117" height="14" viewBox="0 0 117 14" fill="none" xmlns="http://www.w3.org/2000/svg">
<path d="M5.27734 14C4.39844 14 3.63672 13.834 2.99219 13.502C2.34766 13.1634 1.84635 12.7109 1.48828 12.1445C1.13672 11.5781 0.960938 10.9564 0.960938 10.2793V4.3418C0.960938 3.6582 1.13672 3.03646 1.48828 2.47656C1.84635 1.91016 2.34766 1.46094 2.99219 1.12891C3.63672 0.790365 4.39844 0.621094 5.27734 0.621094H8.28516C9.16406 0.621094 9.92578 0.790365 10.5703 1.12891C11.2214 1.46094 11.7227 1.91016 12.0742 2.47656C12.4258 3.03646 12.6016 3.6582 12.6016 4.3418V10.2793C12.6016 10.9564 12.4258 11.5781 12.0742 12.1445C11.7227 12.7109 11.2214 13.1634 10.5703 13.502C9.92578 13.834 9.16406 14 8.28516 14H5.27734ZM4.68164 9.57617H5.69727V6.69531H8.32422L9.32031 6.57812L9.94531 5.96289L10.082 5.12305V3.08203L9.94531 2.26172L9.32031 1.63672L8.32422 1.5H4.68164V9.57617ZM5.69727 5.66016V2.53516H8.26562L8.93945 2.64258L9.03711 3.21875V5.01562L8.90039 5.5625L8.26562 5.66016H5.69727ZM16.8398 14C15.9609 14 15.1992 13.834 14.5547 13.502C13.9102 13.1634 13.4089 12.7109 13.0508 12.1445C12.6992 11.5781 12.5234 10.9564 12.5234 10.2793V4.3418C12.5234 3.6582 12.6992 3.03646 13.0508 2.47656C13.4089 1.91016 13.9102 1.46094 14.5547 1.12891C15.1992 0.790365 15.9609 0.621094 16.8398 0.621094H19.8477C20.7266 0.621094 21.4883 0.790365 22.1328 1.12891C22.7839 1.46094 23.2852 1.91016 23.6367 2.47656C23.9883 3.03646 24.1641 3.6582 24.1641 4.3418V10.2793C24.1641 10.9564 23.9883 11.5781 23.6367 12.1445C23.2852 12.7109 22.7839 13.1634 22.1328 13.502C21.4883 13.834 20.7266 14 19.8477 14H16.8398ZM16.9473 9.57617H20.9805V8.54102H17.9824V1.5H16.9473V9.57617ZM28.4023 14C27.5234 14 26.7617 13.834 26.1172 13.502C25.4727 13.1634 24.9714 12.7109 24.6133 12.1445C24.2617 11.5781 24.0859 10.9564 24.0859 10.2793V4.3418C24.0859 3.6582 24.2617 3.03646 24.6133 2.47656C24.9714 1.91016 25.4727 1.46094 26.1172 1.12891C26.7617 0.790365 27.5234 0.621094 28.4023 0.621094H31.4102C32.2891 0.621094 33.0508 0.790365 33.6953 1.12891C34.3464 1.46094 34.8477 1.91016 35.1992 2.47656C35.5508 3.03646 35.7266 3.6582 35.7266 4.3418V10.2793C35.7266 10.9564 35.5508 11.5781 35.1992 12.1445C34.8477 12.7109 34.3464 13.1634 33.6953 13.502C33.0508 13.834 32.2891 14 31.4102 14H28.4023ZM28.7441 9.57617H30.8828L31.6445 9.45898L32.6113 9.56641V2.24219L31.9473 1.61719L30.9707 1.5H28.7441L27.6016 1.63672L27.8457 2.70117L28.7637 2.51562H30.9414L31.5273 2.64258L31.6641 3.16016V5.43555L30.9707 5.31836H28.7441L27.7676 5.46484L27.1426 6.08008L27.0059 6.88086V8.02344L27.1426 8.84375L27.7676 9.45898L28.7441 9.57617ZM28.8027 8.54102L28.1875 8.44336L28.0508 7.85742V7.01758L28.1289 6.46094L28.8027 6.36328H30.9219L31.6641 6.44141V8.44336L30.9023 8.54102H28.8027ZM39.9648 14C39.0859 14 38.3242 13.834 37.6797 13.502C37.0352 13.1634 36.5339 12.7109 36.1758 12.1445C35.8242 11.5781 35.6484 10.9564 35.6484 10.2793V4.3418C35.6484 3.6582 35.8242 3.03646 36.1758 2.47656C36.5339 1.91016 37.0352 1.46094 37.6797 1.12891C38.3242 0.790365 39.0859 0.621094 39.9648 0.621094H42.9727C43.8516 0.621094 44.6133 0.790365 45.2578 1.12891C45.9089 1.46094 46.4102 1.91016 46.7617 2.47656C47.1133 3.03646 47.2891 3.6582 47.2891 4.3418V10.2793C47.2891 10.9564 47.1133 11.5781 46.7617 12.1445C46.4102 12.7109 45.9089 13.1634 45.2578 13.502C44.6133 13.834 43.8516 14 42.9727 14H39.9648ZM41.3906 9.57617H42.4258V7.32031L44.9062 1.5H43.6855L41.9082 5.88477L40.1699 1.5H38.9492L41.3906 7.30078V9.57617ZM51.5273 14C50.6484 14 49.8867 13.834 49.2422 13.502C48.5977 13.1634 48.0964 12.7109 47.7383 12.1445C47.3867 11.5781 47.2109 10.9564 47.2109 10.2793V4.3418C47.2109 3.6582 47.3867 3.03646 47.7383 2.47656C48.0964 1.91016 48.5977 1.46094 49.2422 1.12891C49.8867 0.790365 50.6484 0.621094 51.5273 0.621094H54.5352C55.4141 0.621094 56.1758 0.790365 56.8203 1.12891C57.4714 1.46094 57.9727 1.91016 58.3242 2.47656C58.6758 3.03646 58.8516 3.6582 58.8516 4.3418V10.2793C58.8516 10.9564 58.6758 11.5781 58.3242 12.1445C57.9727 12.7109 57.4714 13.1634 56.8203 13.502C56.1758 13.834 55.4141 14 54.5352 14H51.5273ZM52.3477 9.57617H54.7891L55.7754 9.45898L56.4102 8.84375L56.5469 8.00391V5.43555H53.7148V6.48047H55.5117V7.85742C55.4792 7.96159 55.4564 8.05924 55.4434 8.15039C55.4303 8.24154 55.4076 8.33919 55.375 8.44336L54.7305 8.54102H52.3672L51.7715 8.44336L51.6348 7.81836V3.19922L51.7324 2.66211L52.3672 2.51562H54.9062L55.9121 2.68164L56.1074 1.63672L54.9746 1.5H52.3477L51.3516 1.65625L50.7266 2.28125L50.5898 3.10156V8.00391L50.7266 8.84375L51.3711 9.45898L52.3477 9.57617ZM63.0898 14C62.2109 14 61.4492 13.834 60.8047 13.502C60.1602 13.1634 59.6589 12.7109 59.3008 12.1445C58.9492 11.5781 58.7734 10.9564 58.7734 10.2793V4.3418C58.7734 3.6582 58.9492 3.03646 59.3008 2.47656C59.6589 1.91016 60.1602 1.46094 60.8047 1.12891C61.4492 0.790365 62.2109 0.621094 63.0898 0.621094H66.0977C66.9766 0.621094 67.7383 0.790365 68.3828 1.12891C69.0339 1.46094 69.5352 1.91016 69.8867 2.47656C70.2383 3.03646 70.4141 3.6582 70.4141 4.3418V10.2793C70.4141 10.9564 70.2383 11.5781 69.8867 12.1445C69.5352 12.7109 69.0339 13.1634 68.3828 13.502C67.7383 13.834 66.9766 14 66.0977 14H63.0898ZM62.1719 9.57617H63.2168V6.32422H65.7559L66.4492 6.63672L66.5957 7.16406V9.57617H67.6309V7.05664L67.2891 6.1582L66.1758 5.75781L67.25 5.24023L67.5527 4.36133V3.27734L67.4355 2.45703L66.791 1.63672L65.8145 1.5H62.1719V9.57617ZM63.2168 5.2793V2.53516H65.7559L66.4492 2.83789L66.5176 3.4043V4.43945L66.3711 4.97656L65.7559 5.2793H63.2168ZM74.6523 14C73.7734 14 73.0117 13.834 72.3672 13.502C71.7227 13.1634 71.2214 12.7109 70.8633 12.1445C70.5117 11.5781 70.3359 10.9564 70.3359 10.2793V4.3418C70.3359 3.6582 70.5117 3.03646 70.8633 2.47656C71.2214 1.91016 71.7227 1.46094 72.3672 1.12891C73.0117 0.790365 73.7734 0.621094 74.6523 0.621094H77.6602C78.5391 0.621094 79.3008 0.790365 79.9453 1.12891C80.5964 1.46094 81.0977 1.91016 81.4492 2.47656C81.8008 3.03646 81.9766 3.6582 81.9766 4.3418V10.2793C81.9766 10.9564 81.8008 11.5781 81.4492 12.1445C81.0977 12.7109 80.5964 13.1634 79.9453 13.502C79.3008 13.834 78.5391 14 77.6602 14H74.6523ZM75.2969 9.57617H77.9141L78.9199 9.45898L79.5352 8.84375L79.6719 8.00391V3.08203L79.5352 2.26172L78.9199 1.63672L77.9141 1.5H75.2969L74.3008 1.63672L73.6758 2.26172L73.5586 3.08203V8.00391L73.6758 8.84375L74.3203 9.45898L75.2969 9.57617ZM75.3555 8.54102L74.7207 8.44336L74.5742 7.85742V3.17969L74.6719 2.64258L75.3555 2.53516H77.8555L78.5391 2.64258L78.6367 3.21875V7.89648L78.5 8.44336L77.8555 8.54102H75.3555ZM86.2148 14C85.3359 14 84.5742 13.834 83.9297 13.502C83.2852 13.1634 82.7839 12.7109 82.4258 12.1445C82.0742 11.5781 81.8984 10.9564 81.8984 10.2793V4.3418C81.8984 3.6582 82.0742 3.03646 82.4258 2.47656C82.7839 1.91016 83.2852 1.46094 83.9297 1.12891C84.5742 0.790365 85.3359 0.621094 86.2148 0.621094H89.2227C90.1016 0.621094 90.8633 0.790365 91.5078 1.12891C92.1589 1.46094 92.6602 1.91016 93.0117 2.47656C93.3633 3.03646 93.5391 3.6582 93.5391 4.3418V10.2793C93.5391 10.9564 93.3633 11.5781 93.0117 12.1445C92.6602 12.7109 92.1589 13.1634 91.5078 13.502C90.8633 13.834 90.1016 14 89.2227 14H86.2148ZM86.8008 9.57617H89.418L90.4141 9.45898L91.0391 8.84375L91.1758 8.00391V1.5H90.1406V7.89648L89.9941 8.44336L89.3594 8.54102H86.8594L86.2148 8.44336L86.0781 7.85742V1.5H85.0625V8.00391L85.1797 8.84375L85.8145 9.45898L86.8008 9.57617ZM97.7773 14C96.8984 14 96.1367 13.834 95.4922 13.502C94.8477 13.1634 94.3464 12.7109 93.9883 12.1445C93.6367 11.5781 93.4609 10.9564 93.4609 10.2793V4.3418C93.4609 3.6582 93.6367 3.03646 93.9883 2.47656C94.3464 1.91016 94.8477 1.46094 95.4922 1.12891C96.1367 0.790365 96.8984 0.621094 97.7773 0.621094H100.785C101.664 0.621094 102.426 0.790365 103.07 1.12891C103.721 1.46094 104.223 1.91016 104.574 2.47656C104.926 3.03646 105.102 3.6582 105.102 4.3418V10.2793C105.102 10.9564 104.926 11.5781 104.574 12.1445C104.223 12.7109 103.721 13.1634 103.07 13.502C102.426 13.834 101.664 14 100.785 14H97.7773ZM96.6445 9.57617H97.6797V2.64258L98.4414 2.51562H100.785L101.459 2.62305L101.557 3.19922V9.57617H102.602V3.0625L102.465 2.24219L101.84 1.61719L100.844 1.5H98.4023L96.6445 1.74414V9.57617ZM109.34 14C108.461 14 107.699 13.834 107.055 13.502C106.41 13.1634 105.909 12.7109 105.551 12.1445C105.199 11.5781 105.023 10.9564 105.023 10.2793V4.3418C105.023 3.6582 105.199 3.03646 105.551 2.47656C105.909 1.91016 106.41 1.46094 107.055 1.12891C107.699 0.790365 108.461 0.621094 109.34 0.621094H112.348C113.227 0.621094 113.988 0.790365 114.633 1.12891C115.284 1.46094 115.785 1.91016 116.137 2.47656C116.488 3.03646 116.664 3.6582 116.664 4.3418V10.2793C116.664 10.9564 116.488 11.5781 116.137 12.1445C115.785 12.7109 115.284 13.1634 114.633 13.502C113.988 13.834 113.227 14 112.348 14H109.34ZM108.266 9.57617H112.621L113.627 9.45898L114.242 8.84375L114.379 8.00391V3.08203L114.242 2.26172L113.627 1.63672L112.621 1.5H108.266V9.57617ZM109.281 8.54102V2.53516H112.562L113.246 2.64258L113.344 3.21875V7.89648L113.207 8.44336L112.562 8.54102H109.281Z" fill="url(#paint0_linear_2_35)"/>
<defs>
<linearGradient id="paint0_linear_2_35" x1="59" y1="-6" x2="59" y2="17" gradientUnits="userSpaceOnUse">
<stop stop-color="#FF0000"/>
<stop offset="1" stop-color="#FF6200"/>
</linearGradient>
</defs>
</svg>
