<svg width="201" height="14" viewBox="0 0 201 14" fill="none" xmlns="http://www.w3.org/2000/svg">
<path d="M5.96 7.5V13.1H7.96V14H0.64V13.1H2.62V0.999999H0.64V0.099999H18.34V7.5H5.96ZM5.96 0.999999V6.6H17.44V0.999999H5.96ZM37.0611 10.3V14H19.7411V13.1H21.7411V0.999999H19.7411V0.099999H27.0611V0.999999H25.0811V13.1H36.1611V10.3H37.0611ZM58.4005 13.1V14H53.5405V13.1H55.5205V7.5H43.4405V13.1H45.4205V14H38.1005V13.1H40.1005V0.999999H38.1005V0.099999H56.4205V13.1H58.4005ZM55.5205 6.6V0.999999H43.4405V6.6H55.5205ZM72.2356 0.099999H77.0956V0.999999H74.8756L69.4356 7.22V13.1H71.4156V14H64.1156V13.1H66.0956V7.22L60.6556 0.999999H58.4156V0.099999H63.2956V0.999999H61.8556L66.7556 6.6H68.7756L73.6756 0.999999H72.2356V0.099999ZM95.0322 3.8V0.999999H82.9522V13.1H95.0322V7.5H87.3722V6.6H95.9322V14H77.6122V13.1H79.6122V0.999999H77.6122V0.099999H95.9322V3.8H95.0322ZM115.328 7.04C115.861 7.45333 116.128 8 116.128 8.68V13.1H118.108V14H113.248V13.1H115.208V8.68C115.208 8.34667 115.095 8.06667 114.868 7.84C114.641 7.61333 114.368 7.5 114.048 7.5H103.128V13.1H105.128V14H97.808V13.1H99.788V0.999999H97.808V0.099999H116.128V5.4C116.128 6.08 115.861 6.62667 115.328 7.04ZM115.208 0.999999H103.128V6.58H114.048C114.368 6.58 114.641 6.46667 114.868 6.24C115.095 6.01333 115.208 5.73333 115.208 5.4V0.999999ZM136.097 0.099999V14H119.777V0.099999H136.097ZM135.197 0.999999H123.117V13.1H135.197V0.999999ZM158.362 0.999999H156.382V14H138.062V13.1H140.042V0.999999H138.062V0.099999H145.362V0.999999H143.382V13.1H155.482V0.999999H153.482V0.099999H158.362V0.999999ZM178.451 0.999999V13.1H180.431V14H175.371L164.651 1.76V13.1H166.631V14H159.331V13.1H161.311V0.999999H159.331V0.099999H164.411L175.111 12.34V0.999999H173.131V0.099999H180.431V0.999999H178.451ZM197.154 0.099999C197.941 0.099999 198.614 0.386666 199.174 0.96C199.748 1.52 200.034 2.2 200.034 3V11.12C200.034 11.9067 199.748 12.5867 199.174 13.16C198.614 13.72 197.941 14 197.154 14H181.714V13.1H183.694V0.999999H181.714V0.099999H197.154ZM199.134 3C199.134 2.45333 198.934 1.98667 198.534 1.6C198.148 1.2 197.688 0.999999 197.154 0.999999H187.034V13.1H197.154C197.688 13.1 198.148 12.9067 198.534 12.52C198.934 12.12 199.134 11.6533 199.134 11.12V3Z" fill="url(#paint0_linear_2_45)"/>
<defs>
<linearGradient id="paint0_linear_2_45" x1="101" y1="-4" x2="101" y2="19" gradientUnits="userSpaceOnUse">
<stop stop-color="#FF0000"/>
<stop offset="1" stop-color="#FF6200"/>
</linearGradient>
</defs>
</svg>
