<svg width="219" height="18" viewBox="0 0 219 18" fill="none" xmlns="http://www.w3.org/2000/svg">
<path d="M11.42 4.44C11.58 4.44 11.74 4.45333 11.9 4.48C12.0733 4.50667 12.2267 4.55333 12.36 4.62C12.5067 4.68667 12.6267 4.78 12.72 4.9C12.8133 5.02 12.86 5.18 12.86 5.38C12.86 5.56667 12.8067 5.72 12.7 5.84C12.6067 5.96 12.4867 6.05333 12.34 6.12C12.1933 6.18667 12.0333 6.23333 11.86 6.26C11.6867 6.28667 11.5333 6.3 11.4 6.3H4V4.44H11.42ZM11.4 7.4C11.72 7.4 12.0333 7.36667 12.34 7.3C12.66 7.22 12.94 7.1 13.18 6.94C13.42 6.78 13.6133 6.57333 13.76 6.32C13.9067 6.05333 13.98 5.74 13.98 5.38C13.98 5.00667 13.9067 4.69333 13.76 4.44C13.6267 4.17333 13.44 3.96 13.2 3.8C12.9733 3.62667 12.7 3.50667 12.38 3.44C12.0733 3.36 11.7533 3.32 11.42 3.32H2.88V7.4H11.4ZM2.88 13.9H1.66V2.1H11.42C11.9667 2.1 12.4733 2.16667 12.94 2.3C13.4067 2.42 13.8067 2.61333 14.14 2.88C14.4867 3.13333 14.7533 3.47333 14.94 3.9C15.14 4.31333 15.24 4.80667 15.24 5.38C15.24 6.11333 15.0667 6.72 14.72 7.2C14.3867 7.66667 13.8867 8.03333 13.22 8.3V8.32C12.9133 8.42667 12.4867 8.50667 11.94 8.56C11.3933 8.61333 10.78 8.65333 10.1 8.68C9.43333 8.69333 8.73333 8.7 8 8.7C7.26667 8.7 6.56667 8.69333 5.9 8.68C5.23333 8.65333 4.63333 8.63333 4.1 8.62C3.56667 8.60667 3.16 8.6 2.88 8.6V13.9ZM16.36 5.38C16.36 4.62 16.24 3.96667 16 3.42C15.76 2.86 15.42 2.4 14.98 2.04C14.5533 1.68 14.0333 1.41333 13.42 1.24C12.82 1.06667 12.1533 0.979999 11.42 0.979999H0.54V15.02H4V9.7C4.32 9.7 4.73333 9.70667 5.24 9.72C5.76 9.73333 6.32 9.75333 6.92 9.78C7.52 9.79333 8.14667 9.8 8.8 9.8C9.45333 9.8 10.08 9.78667 10.68 9.76C11.2933 9.73333 11.86 9.68667 12.38 9.62C12.9 9.55333 13.3333 9.46 13.68 9.34V9.32C14.56 8.94667 15.2267 8.44 15.68 7.8C16.1333 7.16 16.36 6.35333 16.36 5.38ZM0.04 15.52V0.48H11.42C11.94 0.48 12.4467 0.52 12.94 0.599999C13.4467 0.666666 13.9533 0.819999 14.46 1.06C14.98 1.28667 15.5133 1.61333 16.06 2.04C16.6067 2.46667 17.18 3.03333 17.78 3.74C18.1667 4.12667 18.4333 4.64 18.58 5.28C18.7267 5.92 18.8 6.62 18.8 7.38C18.8 8.46 18.5467 9.35333 18.04 10.06C17.5467 10.7667 16.8133 11.3333 15.84 11.76C15.5733 11.8533 15.2533 11.9333 14.88 12C14.52 12.0533 14.12 12.1 13.68 12.14C13.24 12.18 12.7733 12.2067 12.28 12.22C11.8 12.2333 11.3133 12.24 10.82 12.24C10.1 12.24 9.38667 12.24 8.68 12.24C7.97333 12.24 7.22667 12.2333 6.44 12.22V17.46H2.1L0.04 15.52ZM23.737 2.1V12.68H35.037V13.9H22.537V2.1H23.737ZM36.137 15.02V11.56H24.857V0.979999H21.437V15.02H36.137ZM20.937 0.48H25.357L27.297 2.54V11.06H36.637L38.577 13.12V17.46H22.997L20.937 15.52V0.48ZM56.8867 9.56L52.6667 3.58L48.3467 9.56H56.8867ZM54.7267 8.48H50.4867L52.6267 5.48L54.7267 8.48ZM59.8667 13.9L57.7067 10.8H47.4867C47.1134 11.3067 46.7467 11.8267 46.3867 12.36C46.0401 12.88 45.6801 13.3933 45.3067 13.9H43.7067C45.1201 11.9133 46.5267 9.94667 47.9267 8C49.3401 6.05333 50.7467 4.08667 52.1467 2.1H53.1067L61.3667 13.9H59.8667ZM51.6067 0.979999L41.6067 15.02H45.8467L48.0467 11.92H57.0867L59.2667 15.02H63.5067L53.7067 0.979999H51.6067ZM55.9467 2.54L66.3467 17.46H61.0267L59.0067 15.52L58.1867 14.36H50.2867C50.1267 14.6 49.9467 14.8533 49.7467 15.12C49.5601 15.3867 49.3667 15.6533 49.1667 15.92C48.9801 16.2 48.7934 16.4667 48.6067 16.72C48.4201 16.9867 48.2467 17.2333 48.0867 17.46H42.7467L40.6267 15.52L51.3467 0.48H53.9667L55.9467 2.54ZM62.7036 2.1H64.4636L70.2636 7.8L75.9636 2.1H77.7036L70.8636 8.92V13.9H69.6236V8.94L62.7036 2.1ZM71.9836 15.02V9.38L80.3636 0.979999H75.5236L70.2436 6.3L64.8836 0.979999H60.0036L68.5236 9.42V15.02H71.9836ZM68.0236 9.62C67.3036 8.91333 66.5503 8.17333 65.7636 7.4C64.9903 6.62667 64.2036 5.84667 63.4036 5.06C62.6036 4.26 61.8103 3.47333 61.0236 2.7C60.2369 1.92667 59.4903 1.18667 58.7836 0.48H65.0836L70.2236 5.6L75.3036 0.48H81.5836L83.4436 2.54L74.4236 11.56V17.46H70.0836L68.0236 15.52V9.62ZM99.1811 4.52C98.5811 4.06667 97.9078 3.75333 97.1611 3.58C96.4278 3.40667 95.6878 3.32 94.9411 3.32H92.7611C91.9878 3.32 91.2611 3.40667 90.5811 3.58C89.9144 3.74 89.3344 4.00667 88.8411 4.38C88.3478 4.74 87.9544 5.22 87.6611 5.82C87.3811 6.42 87.2411 7.14667 87.2411 8C87.2411 8.86667 87.3811 9.6 87.6611 10.2C87.9411 10.7867 88.3278 11.2667 88.8211 11.64C89.3278 12 89.9144 12.2667 90.5811 12.44C91.2478 12.6 91.9744 12.68 92.7611 12.68H94.9411C95.6344 12.68 96.2944 12.6067 96.9211 12.46C97.5611 12.3 98.1344 12.06 98.6411 11.74C99.1478 11.4067 99.5811 10.9867 99.9411 10.48C100.301 9.96 100.561 9.33333 100.721 8.6H95.2011V7.4H102.121V8C102.121 9.10667 101.928 10.04 101.541 10.8C101.154 11.5467 100.634 12.1533 99.9811 12.62C99.3278 13.0733 98.5678 13.4 97.7011 13.6C96.8344 13.8 95.9144 13.9 94.9411 13.9H92.7611C91.7878 13.9 90.8878 13.7933 90.0611 13.58C89.2344 13.3667 88.5144 13.0267 87.9011 12.56C87.3011 12.0933 86.8278 11.4867 86.4811 10.74C86.1344 9.99333 85.9611 9.08 85.9611 8C85.9611 6.92 86.1344 6.00667 86.4811 5.26C86.8278 4.51333 87.3011 3.90667 87.9011 3.44C88.5144 2.97333 89.2344 2.63333 90.0611 2.42C90.8878 2.20667 91.7878 2.1 92.7611 2.1H94.9411C95.4344 2.1 95.9278 2.12 96.4211 2.16C96.9144 2.18667 97.3944 2.25333 97.8611 2.36C98.3278 2.46667 98.7811 2.62 99.2211 2.82C99.6744 3.00667 100.094 3.26667 100.481 3.6L99.1811 4.52ZM102.181 3.88C101.714 3.26667 101.208 2.77333 100.661 2.4C100.114 2.02667 99.5344 1.73333 98.9211 1.52C98.3211 1.30667 97.6878 1.16667 97.0211 1.1C96.3544 1.02 95.6611 0.979999 94.9411 0.979999H92.7611C91.6011 0.979999 90.5411 1.11333 89.5811 1.38C88.6211 1.63333 87.7878 2.04 87.0811 2.6C86.3878 3.16 85.8478 3.88667 85.4611 4.78C85.0744 5.66 84.8811 6.73333 84.8811 8C84.8811 9.26667 85.0744 10.3467 85.4611 11.24C85.8478 12.12 86.3878 12.84 87.0811 13.4C87.7878 13.96 88.6211 14.3733 89.5811 14.64C90.5411 14.8933 91.6011 15.02 92.7611 15.02H94.9411C96.0878 15.02 97.1611 14.9 98.1611 14.66C99.1744 14.4067 100.054 14.0067 100.801 13.46C101.548 12.9 102.134 12.1733 102.561 11.28C103.001 10.3867 103.221 9.29333 103.221 8V6.3H94.0811V9.7H99.2811C99.0678 10.06 98.7944 10.36 98.4611 10.6C98.1278 10.84 97.7611 11.0333 97.3611 11.18C96.9744 11.3133 96.5678 11.4133 96.1411 11.48C95.7278 11.5333 95.3278 11.56 94.9411 11.56H92.7611C92.1611 11.56 91.5944 11.5 91.0611 11.38C90.5278 11.26 90.0611 11.0667 89.6611 10.8C89.2611 10.52 88.9411 10.1533 88.7011 9.7C88.4611 9.24667 88.3411 8.68 88.3411 8C88.3411 7.33333 88.4611 6.77333 88.7011 6.32C88.9411 5.86667 89.2611 5.5 89.6611 5.22C90.0744 4.94 90.5478 4.74 91.0811 4.62C91.6144 4.5 92.1744 4.44 92.7611 4.44H94.9411C95.7278 4.44 96.4811 4.56667 97.2011 4.82C97.9211 5.06 98.5611 5.47333 99.1211 6.06L102.181 3.88ZM88.0811 15.32C87.3344 14.68 86.7211 14.0733 86.2411 13.5C85.7611 12.9267 85.3811 12.3533 85.1011 11.78C84.8344 11.1933 84.6478 10.6 84.5411 10C84.4344 9.38667 84.3811 8.72 84.3811 8C84.3811 6.64 84.5878 5.48667 85.0011 4.54C85.4144 3.58 85.9878 2.8 86.7211 2.2C87.4678 1.6 88.3544 1.16667 89.3811 0.899999C90.4078 0.62 91.5344 0.48 92.7611 0.48H94.9411C95.6744 0.48 96.3811 0.513333 97.0611 0.58C97.7411 0.646666 98.4011 0.786666 99.0411 0.999999C99.6811 1.2 100.294 1.50667 100.881 1.92C101.481 2.32 102.061 2.86 102.621 3.54C103.021 3.94 103.348 4.27333 103.601 4.54C103.854 4.80667 104.054 5.03333 104.201 5.22C104.361 5.40667 104.481 5.56 104.561 5.68C104.654 5.78667 104.734 5.88667 104.801 5.98L104.201 6.4L105.661 7.86V10C105.661 11.3733 105.434 12.5333 104.981 13.48C104.528 14.4267 103.908 15.1933 103.121 15.78C102.334 16.38 101.408 16.8067 100.341 17.06C99.2878 17.3267 98.1544 17.46 96.9411 17.46H94.7611C93.4011 17.46 92.1344 17.2867 90.9611 16.94C89.7878 16.6067 88.8278 16.0667 88.0811 15.32ZM93.5811 7C93.1811 7.06667 92.8078 7.17333 92.4611 7.32C92.1278 7.45333 91.8344 7.64 91.5811 7.88C91.3278 8.12 91.1278 8.42 90.9811 8.78C90.8478 9.12667 90.7811 9.53333 90.7811 10C90.7811 10.32 90.8078 10.5867 90.8611 10.8C91.1411 10.8933 91.4411 10.96 91.7611 11C92.0811 11.04 92.4144 11.06 92.7611 11.06H94.5611L93.5811 10.2V7ZM120.271 4.44C120.431 4.44 120.598 4.45333 120.771 4.48C120.945 4.50667 121.105 4.55333 121.251 4.62C121.398 4.68667 121.518 4.78 121.611 4.9C121.718 5.02 121.771 5.18 121.771 5.38C121.771 5.56667 121.718 5.72 121.611 5.84C121.505 5.96 121.371 6.05333 121.211 6.12C121.065 6.18667 120.898 6.23333 120.711 6.26C120.538 6.28667 120.385 6.3 120.251 6.3H112.851V4.44H120.271ZM120.251 7.4C120.571 7.4 120.885 7.36667 121.191 7.3C121.511 7.22 121.798 7.1 122.051 6.94C122.305 6.78 122.505 6.57333 122.651 6.32C122.811 6.05333 122.891 5.74 122.891 5.38C122.891 5.00667 122.818 4.68667 122.671 4.42C122.525 4.15333 122.325 3.94 122.071 3.78C121.831 3.62 121.551 3.50667 121.231 3.44C120.925 3.36 120.605 3.32 120.271 3.32H111.751V7.4H120.251ZM122.071 8.3C121.885 8.40667 121.678 8.48667 121.451 8.54C121.225 8.59333 121.011 8.64667 120.811 8.7C121.558 9.58 122.305 10.4467 123.051 11.3C123.811 12.1533 124.571 13.02 125.331 13.9H123.711L119.091 8.6H111.751V13.9H110.511V2.1H120.271C120.818 2.1 121.325 2.16 121.791 2.28C122.271 2.4 122.678 2.59333 123.011 2.86C123.358 3.12667 123.625 3.46667 123.811 3.88C124.011 4.29333 124.111 4.79333 124.111 5.38C124.111 6.11333 123.945 6.72 123.611 7.2C123.278 7.66667 122.771 8.03333 122.091 8.3H122.071ZM125.231 5.38C125.231 4.62 125.111 3.96667 124.871 3.42C124.631 2.86 124.291 2.4 123.851 2.04C123.411 1.68 122.885 1.41333 122.271 1.24C121.671 1.06667 121.005 0.979999 120.271 0.979999H109.431V15.02H112.851V9.7H118.571L123.171 15.02H127.771L122.731 9.24C124.398 8.50667 125.231 7.22 125.231 5.38ZM108.931 15.52V0.48H120.271C120.791 0.48 121.291 0.52 121.771 0.599999C122.251 0.666666 122.731 0.813333 123.211 1.04C123.705 1.26667 124.211 1.59333 124.731 2.02C125.265 2.44667 125.831 3.01333 126.431 3.72C126.818 4.10667 127.118 4.62667 127.331 5.28C127.558 5.92 127.671 6.62 127.671 7.38C127.671 8.26 127.478 9.04 127.091 9.72C126.718 10.4 126.171 10.9533 125.451 11.38C125.865 11.86 126.298 12.36 126.751 12.88C127.205 13.4 127.658 13.9267 128.111 14.46C128.565 14.98 129.011 15.4933 129.451 16C129.905 16.52 130.331 17.0067 130.731 17.46H124.971L122.951 15.52L120.031 12.14H115.291V17.46H110.991L108.931 15.52ZM141.135 12.68C141.909 12.68 142.629 12.6 143.295 12.44C143.975 12.2667 144.562 12 145.055 11.64C145.562 11.2667 145.955 10.7867 146.235 10.2C146.515 9.6 146.655 8.86667 146.655 8C146.655 7.14667 146.509 6.42 146.215 5.82C145.935 5.22 145.549 4.74 145.055 4.38C144.562 4.00667 143.975 3.74 143.295 3.58C142.629 3.40667 141.909 3.32 141.135 3.32H138.935C138.149 3.32 137.415 3.40667 136.735 3.58C136.069 3.74 135.489 4.00667 134.995 4.38C134.502 4.74 134.109 5.22 133.815 5.82C133.535 6.42 133.395 7.14667 133.395 8C133.395 8.86667 133.535 9.6 133.815 10.2C134.109 10.7867 134.502 11.2667 134.995 11.64C135.489 12.0133 136.069 12.28 136.735 12.44C137.415 12.6 138.149 12.68 138.935 12.68H141.135ZM138.935 11.56C138.335 11.56 137.769 11.5 137.235 11.38C136.702 11.26 136.235 11.0667 135.835 10.8C135.435 10.52 135.115 10.1533 134.875 9.7C134.635 9.24667 134.515 8.68 134.515 8C134.515 7.33333 134.635 6.77333 134.875 6.32C135.115 5.86667 135.435 5.5 135.835 5.22C136.249 4.94 136.722 4.74 137.255 4.62C137.789 4.5 138.349 4.44 138.935 4.44H141.135C141.722 4.44 142.282 4.5 142.815 4.62C143.349 4.74 143.815 4.94 144.215 5.22C144.615 5.5 144.935 5.86667 145.175 6.32C145.415 6.77333 145.535 7.33333 145.535 8C145.535 8.66667 145.415 9.22667 145.175 9.68C144.949 10.1333 144.635 10.5 144.235 10.78C143.835 11.06 143.369 11.26 142.835 11.38C142.302 11.5 141.735 11.56 141.135 11.56H138.935ZM132.135 8C132.135 6.92 132.302 6.00667 132.635 5.26C132.982 4.51333 133.455 3.90667 134.055 3.44C134.669 2.96 135.389 2.62 136.215 2.42C137.055 2.20667 137.962 2.1 138.935 2.1H141.135C142.109 2.1 143.009 2.20667 143.835 2.42C144.662 2.63333 145.375 2.97333 145.975 3.44C146.589 3.90667 147.062 4.51333 147.395 5.26C147.742 6.00667 147.915 6.92 147.915 8C147.915 9.08 147.742 9.99333 147.395 10.74C147.062 11.4867 146.589 12.0933 145.975 12.56C145.375 13.0267 144.662 13.3667 143.835 13.58C143.009 13.7933 142.109 13.9 141.135 13.9H138.935C137.962 13.9 137.055 13.8 136.215 13.6C135.389 13.3867 134.669 13.0467 134.055 12.58C133.455 12.1 132.982 11.4867 132.635 10.74C132.302 9.99333 132.135 9.08 132.135 8ZM131.015 8C131.015 9.26667 131.209 10.3467 131.595 11.24C131.995 12.12 132.542 12.84 133.235 13.4C133.942 13.96 134.775 14.3733 135.735 14.64C136.709 14.8933 137.775 15.02 138.935 15.02H141.135C142.295 15.02 143.355 14.8933 144.315 14.64C145.275 14.3733 146.102 13.96 146.795 13.4C147.502 12.84 148.049 12.12 148.435 11.24C148.822 10.3467 149.015 9.26667 149.015 8C149.015 6.73333 148.822 5.66 148.435 4.78C148.049 3.88667 147.502 3.16 146.795 2.6C146.102 2.04 145.275 1.63333 144.315 1.38C143.355 1.11333 142.295 0.979999 141.135 0.979999H138.935C137.775 0.979999 136.709 1.11333 135.735 1.38C134.775 1.63333 133.942 2.04 133.235 2.6C132.542 3.16 131.995 3.88667 131.595 4.78C131.209 5.66 131.015 6.73333 131.015 8ZM130.515 8C130.515 6.64 130.722 5.48667 131.135 4.54C131.549 3.58 132.129 2.8 132.875 2.2C133.622 1.6 134.509 1.16667 135.535 0.899999C136.575 0.62 137.709 0.48 138.935 0.48H141.135C141.909 0.48 142.635 0.526666 143.315 0.619999C144.009 0.699999 144.689 0.879999 145.355 1.16C146.022 1.42667 146.682 1.81333 147.335 2.32C148.002 2.81333 148.689 3.48 149.395 4.32C149.995 4.92 150.489 5.71333 150.875 6.7C151.262 7.68667 151.455 8.78667 151.455 10C151.455 11.3467 151.249 12.4933 150.835 13.44C150.435 14.3867 149.862 15.1533 149.115 15.74C148.382 16.34 147.502 16.7733 146.475 17.04C145.462 17.32 144.349 17.46 143.135 17.46H140.935C139.575 17.46 138.309 17.3067 137.135 17C135.962 16.6933 134.995 16.1667 134.235 15.42C133.475 14.7533 132.855 14.1267 132.375 13.54C131.895 12.94 131.515 12.3467 131.235 11.76C130.969 11.1733 130.782 10.5733 130.675 9.96C130.569 9.34667 130.515 8.69333 130.515 8ZM141.135 11.06C141.655 11.06 142.149 11.0133 142.615 10.92C143.095 10.8133 143.515 10.64 143.875 10.4C144.235 10.16 144.515 9.84667 144.715 9.46C144.929 9.06 145.035 8.57333 145.035 8C145.035 7.68 144.995 7.38667 144.915 7.12C144.369 6.96 143.775 6.88 143.135 6.88H140.935C140.402 6.88 139.895 6.93333 139.415 7.04C138.935 7.14667 138.509 7.32 138.135 7.56C137.775 7.8 137.489 8.12 137.275 8.52C137.062 8.92 136.955 9.41333 136.955 10C136.955 10.32 136.982 10.5867 137.035 10.8C137.315 10.8933 137.615 10.96 137.935 11C138.255 11.04 138.589 11.06 138.935 11.06H141.135ZM155.855 2.1V8C155.855 8.86667 155.995 9.6 156.275 10.2C156.555 10.7867 156.942 11.2667 157.435 11.64C157.942 12 158.528 12.2667 159.195 12.44C159.862 12.6 160.588 12.68 161.375 12.68H163.575C164.348 12.68 165.068 12.6 165.735 12.44C166.415 12.2667 167.002 12 167.495 11.64C168.002 11.2667 168.395 10.7867 168.675 10.2C168.968 9.6 169.115 8.86667 169.115 8V2.1H170.375V8C170.375 9.08 170.202 9.99333 169.855 10.74C169.508 11.4867 169.028 12.1 168.415 12.58C167.815 13.0467 167.102 13.3867 166.275 13.6C165.448 13.8 164.548 13.9 163.575 13.9H161.375C160.402 13.9 159.495 13.8 158.655 13.6C157.828 13.3867 157.108 13.0467 156.495 12.58C155.895 12.1 155.422 11.4867 155.075 10.74C154.742 9.99333 154.575 9.08 154.575 8V2.1H155.855ZM153.475 8C153.475 9.26667 153.668 10.3467 154.055 11.24C154.442 12.12 154.982 12.84 155.675 13.4C156.382 13.96 157.215 14.3733 158.175 14.64C159.148 14.8933 160.215 15.02 161.375 15.02H163.575C164.735 15.02 165.795 14.8933 166.755 14.64C167.728 14.3733 168.562 13.96 169.255 13.4C169.962 12.84 170.508 12.12 170.895 11.24C171.282 10.3467 171.475 9.26667 171.475 8V0.979999H167.995V8C167.995 8.68 167.875 9.24667 167.635 9.7C167.395 10.1533 167.075 10.52 166.675 10.8C166.275 11.0667 165.808 11.26 165.275 11.38C164.742 11.5 164.175 11.56 163.575 11.56H161.375C160.775 11.56 160.208 11.5 159.675 11.38C159.142 11.26 158.675 11.06 158.275 10.78C157.875 10.5 157.555 10.1333 157.315 9.68C157.088 9.22667 156.975 8.66667 156.975 8V0.979999H153.475V8ZM152.975 0.48H157.475L159.415 2.54V10C159.415 10.1467 159.415 10.2867 159.415 10.42C159.428 10.5533 159.448 10.68 159.475 10.8C160.035 10.9733 160.668 11.06 161.375 11.06H163.575C164.095 11.06 164.588 11.0133 165.055 10.92C165.535 10.8133 165.955 10.64 166.315 10.4C166.675 10.16 166.962 9.84667 167.175 9.46C167.388 9.07333 167.495 8.58667 167.495 8V0.48H171.975L173.915 2.54V10C173.915 11.3467 173.708 12.4933 173.295 13.44C172.882 14.3867 172.308 15.1533 171.575 15.74C170.842 16.34 169.962 16.7733 168.935 17.04C167.908 17.32 166.788 17.46 165.575 17.46H163.375C162.695 17.46 162.035 17.4267 161.395 17.36C160.768 17.2933 160.168 17.18 159.595 17.02C159.035 16.8733 158.515 16.6733 158.035 16.42C157.555 16.1667 157.128 15.8533 156.755 15.48C155.995 14.8267 155.368 14.2067 154.875 13.62C154.395 13.02 154.015 12.42 153.735 11.82C153.455 11.22 153.255 10.6133 153.135 10C153.028 9.37333 152.975 8.70667 152.975 8V0.48ZM179.792 4V13.9H178.612V2.1H179.632L190.372 12V2.1H191.572V13.9H190.572L179.792 4ZM192.692 0.979999H189.272V9.48L180.012 0.979999H177.492V15.02H180.912V6.5L190.192 15.02H192.692V0.979999ZM176.992 15.52V0.48H180.192L188.772 8.34V0.48H193.192L195.132 2.54V17.46H192.012L183.352 9.52V17.46H179.052L176.992 15.52ZM208.245 12.68C209.018 12.68 209.745 12.6 210.425 12.44C211.105 12.28 211.692 12.0133 212.185 11.64C212.692 11.2667 213.085 10.7867 213.365 10.2C213.658 9.6 213.805 8.86667 213.805 8C213.805 7.13333 213.658 6.40667 213.365 5.82C213.085 5.22 212.692 4.73333 212.185 4.36C211.692 3.98667 211.105 3.72 210.425 3.56C209.745 3.4 209.018 3.32 208.245 3.32H201.125V12.68H208.245ZM208.245 4.44C208.845 4.44 209.412 4.5 209.945 4.62C210.492 4.72667 210.965 4.92 211.365 5.2C211.778 5.48 212.105 5.84667 212.345 6.3C212.598 6.75333 212.725 7.32 212.725 8C212.725 8.68 212.605 9.25333 212.365 9.72C212.125 10.1733 211.798 10.54 211.385 10.82C210.972 11.0867 210.492 11.28 209.945 11.4C209.412 11.5067 208.845 11.56 208.245 11.56H202.205V4.44H208.245ZM208.245 2.1C209.218 2.1 210.118 2.20667 210.945 2.42C211.772 2.62 212.492 2.96 213.105 3.44C213.718 3.90667 214.198 4.51333 214.545 5.26C214.892 6.00667 215.065 6.92 215.065 8C215.065 9.08 214.892 9.99333 214.545 10.74C214.198 11.4867 213.718 12.1 213.105 12.58C212.492 13.0467 211.772 13.3867 210.945 13.6C210.118 13.8 209.218 13.9 208.245 13.9H199.905V2.1H208.245ZM208.245 15.02C209.405 15.02 210.465 14.8933 211.425 14.64C212.398 14.3867 213.232 13.98 213.925 13.42C214.632 12.86 215.178 12.1333 215.565 11.24C215.965 10.3467 216.165 9.26667 216.165 8C216.165 6.73333 215.965 5.65333 215.565 4.76C215.178 3.86667 214.632 3.14 213.925 2.58C213.232 2.02 212.398 1.61333 211.425 1.36C210.465 1.10667 209.405 0.979999 208.245 0.979999H198.805V15.02H208.245ZM198.305 0.48H208.245C209.005 0.48 209.738 0.52 210.445 0.599999C211.152 0.666666 211.845 0.826666 212.525 1.08C213.218 1.33333 213.905 1.70667 214.585 2.2C215.278 2.69333 215.985 3.36 216.705 4.2C217.305 4.8 217.772 5.62 218.105 6.66C218.438 7.68667 218.605 8.8 218.605 10C218.605 11.3467 218.398 12.4933 217.985 13.44C217.572 14.3867 216.992 15.1533 216.245 15.74C215.512 16.34 214.632 16.7733 213.605 17.04C212.578 17.32 211.458 17.46 210.245 17.46H200.365L198.305 15.52V0.48ZM204.645 11.06H208.245C208.778 11.06 209.285 11.0133 209.765 10.92C210.245 10.8133 210.665 10.6467 211.025 10.42C211.398 10.18 211.692 9.86667 211.905 9.48C212.118 9.08 212.225 8.58667 212.225 8C212.225 7.70667 212.192 7.41333 212.125 7.12C211.538 6.96 210.912 6.88 210.245 6.88H204.645V11.06Z" fill="url(#paint0_linear_2_38)"/>
<defs>
<linearGradient id="paint0_linear_2_38" x1="111" y1="0" x2="111" y2="20" gradientUnits="userSpaceOnUse">
<stop stop-color="#FF0000"/>
<stop offset="1" stop-color="#FF6200"/>
</linearGradient>
</defs>
</svg>
